<svg xmlns="http://www.w3.org/2000/svg" width="30" height="17.999" viewBox="0 0 30 17.999" fill='#65dc47'><path d="M30 9v-.962C30 3.531 23.411.001 15 .001S0 3.531 0 8.037v.962a1 1 0 0 0 1 1v2.112a1.45 1.45 0 0 0-.583.436 1.867 1.867 0 0 0-.417 1.2c0 2.343 1.594 4.25 3.553 4.25h22.893a3.252 3.252 0 0 0 2.543-1.283A4.665 4.665 0 0 0 30 13.749a1.751 1.751 0 0 0-1-1.638V9.999A1 1 0 0 0 30 9Zm-1.785 7.086a2.274 2.274 0 0 1-1.768.914H3.553C2.146 17 1 15.542 1 13.75a.889.889 0 0 1 .192-.571.425.425 0 0 1 .325-.179h5.425l1.184 1.332a.5.5 0 0 0 .748 0l2.039-2.294A5.054 5.054 0 0 0 15 14a5.053 5.053 0 0 0 4.087-1.962l2.039 2.294a.5.5 0 0 0 .748 0L23.058 13h5.424c.276 0 .518.351.518.75a3.667 3.667 0 0 1-.786 2.335ZM6.053 12H2v-2h2.275Zm-.44-2h5.773L8.5 13.247Zm5.989 1.262L12.724 10h4.551l1.122 1.262a4.189 4.189 0 0 1-6.794 0Zm9.9 1.986-2.886-3.247h5.773Zm4.224-3.247H28v2h-4.054ZM1 9v-.962c0-3.128 4.083-5.786 9.711-6.7A2.573 2.573 0 0 1 12 3.5a.5.5 0 0 0 1 0 3.529 3.529 0 0 0-.947-2.342q.874-.094 1.785-.132A2.577 2.577 0 0 1 16 3.5a.5.5 0 0 0 1 0 3.507 3.507 0 0 0-1.064-2.482c.875.029 1.729.1 2.553.2A2.588 2.588 0 0 1 20 3.5a.5.5 0 0 0 1 0 3.453 3.453 0 0 0-.632-1.961c5.063 1.061 8.631 3.574 8.631 6.5v.962H1Z"></path></svg>
