<svg xmlns="http://www.w3.org/2000/svg" width="16.989" height="30.2" viewBox="0 0 16.989 30.2" fill='#3ea7e3'><path d="M12.084 22.699H4.906a.44.44 0 1 0 0 .879h7.178a.44.44 0 1 0 0-.879ZM14.35 13.85v-.008q0-.073-.01-.146v-.01l-.013-.139v-.013a5.865 5.865 0 0 0-11.319-1.415.442.442 0 0 0-.021.055 5.881 5.881 0 0 0-.287 2.908v.013a5.865 5.865 0 0 0 11.181 1.411.433.433 0 0 0 .028-.067 5.833 5.833 0 0 0 .451-2.255c0-.111-.003-.222-.01-.334ZM8.494 9.197a4.994 4.994 0 0 1 4.86 3.877 2.9 2.9 0 0 1-.981-.506 3.315 3.315 0 0 0-2.111-.735 3.183 3.183 0 0 0-2.085.74 2.439 2.439 0 0 1-3.145 0A3.847 3.847 0 0 0 4.012 12a4.992 4.992 0 0 1 4.483-2.802Zm0 9.973a4.994 4.994 0 0 1-4.79-3.6 2.99 2.99 0 0 1 .815.463 3.31 3.31 0 0 0 4.171 0 2.44 2.44 0 0 1 3.145 0 3.852 3.852 0 0 0 1.018.572 4.989 4.989 0 0 1-4.358 2.566Zm4.718-3.377a2.873 2.873 0 0 1-.864-.479 3.311 3.311 0 0 0-4.171 0 2.439 2.439 0 0 1-3.145 0 3.32 3.32 0 0 0-1.5-.694 4.863 4.863 0 0 1-.02-.437 4.97 4.97 0 0 1 .191-1.362 2.967 2.967 0 0 1 .821.466 3.31 3.31 0 0 0 4.171 0 2.348 2.348 0 0 1 1.572-.574 2.474 2.474 0 0 1 1.61.578 3.438 3.438 0 0 0 1.6.7v.191a4.961 4.961 0 0 1-.264 1.611Z" stroke-width=".2"></path><path d="m16.385 3.142-.409-.313a1.448 1.448 0 0 1-.333-.362.737.737 0 0 0 .7-.735V.837A.738.738 0 0 0 15.604.1H1.385a.738.738 0 0 0-.737.737v.894a.737.737 0 0 0 .7.735 1.448 1.448 0 0 1-.333.362l-.409.313a1.3 1.3 0 0 0-.5 1.022V27.277a1.18 1.18 0 0 0 .457.882l.95.729a.187.187 0 0 1 .073.147 1.066 1.066 0 0 0 1.06 1.065h11.7a1.066 1.066 0 0 0 1.065-1.065.187.187 0 0 1 .073-.147l.95-.729a1.18 1.18 0 0 0 .457-.882V4.164a1.3 1.3 0 0 0-.506-1.022ZM1.527.979h13.935v.61H1.527ZM14.945 28.19a1.071 1.071 0 0 0-.417.845.186.186 0 0 1-.186.186h-11.7a.186.186 0 0 1-.186-.186 1.071 1.071 0 0 0-.417-.845l-.6-.457h14.094ZM.979 26.853V4.644h4.8a.44.44 0 1 0 0-.879H1.236l.311-.239a2.327 2.327 0 0 0 .773-1.058h12.348a2.327 2.327 0 0 0 .773 1.058l.311.239H4.896a.44.44 0 0 0 0 .879H16.01v22.21Z" stroke-width=".2"></path></svg>
