<svg xmlns="http://www.w3.org/2000/svg" width="25.078" height="30" viewBox="0 0 25.078 30" fill='#edc735'><path d="M23.926 3.512h-.994L21.8.848A1.389 1.389 0 0 0 20.521 0H4.557a1.389 1.389 0 0 0-1.281.848l-1.13 2.664h-.994A1.154 1.154 0 0 0 0 4.664v2.621a1.154 1.154 0 0 0 1.152 1.153H1.9L4.7 28.8A1.4 1.4 0 0 0 6.08 30H19a1.4 1.4 0 0 0 1.379-1.2l2.8-20.361h.745a1.154 1.154 0 0 0 1.152-1.152V4.664a1.154 1.154 0 0 0-1.152-1.152Zm-4.71 25.126a.221.221 0 0 1-.218.19H6.08a.221.221 0 0 1-.218-.19L3.08 8.437H22Zm4.69-21.373H1.172V4.684h19.279a.586.586 0 0 0 0-1.172H3.419l.935-2.206a.219.219 0 0 1 .2-.134h15.967a.219.219 0 0 1 .2.134l.935 2.206h-2.628a.586.586 0 1 0 0 1.172h4.878Zm0 0"></path><path d="M6.211 18.27a6.328 6.328 0 1 0 6.328-6.328 6.335 6.335 0 0 0-6.328 6.328Zm6.328-5.156a5.156 5.156 0 1 1-5.156 5.156 5.162 5.162 0 0 1 5.156-5.156Zm0 0"></path><path d="M9.722 21.088a3.984 3.984 0 1 0-1.167-2.818 3.958 3.958 0 0 0 1.167 2.818Zm4.806-.829a2.811 2.811 0 0 1-3.729.22 1.747 1.747 0 0 1 1.74-1.623 2.92 2.92 0 0 0 2.614-1.625 2.816 2.816 0 0 1-.626 3.028Zm-3.978-3.978a2.811 2.811 0 0 1 3.729-.22 1.747 1.747 0 0 1-1.74 1.623 2.92 2.92 0 0 0-2.614 1.625 2.816 2.816 0 0 1 .626-3.028Zm0 0"></path></svg>
