<svg xmlns="http://www.w3.org/2000/svg" width="17" height="16.234" viewBox="0 0 17 16.234"><g fill="none"><path d="m3.033 15.65.644-5.15L.133 6.684a.518.518 0 0 1 .268-.859l5.1-1.02L8.024.242a.552.552 0 0 1 .913 0L11.461 4.8l5.1 1.02a.492.492 0 0 1 .268.859L13.283 10.5l.644 5.154a.526.526 0 0 1-.752.537l-4.671-2.2-4.724 2.2a.543.543 0 0 1-.747-.541z"/><path d="m4.131 14.922 4.38-2.04 4.32 2.035-.594-4.76 3.274-3.522-4.7-.94-2.33-4.212-2.328 4.212-4.7.94 3.274 3.522-.596 4.765m9.276 1.312a.577.577 0 0 1-.228-.047l-4.67-2.202-4.725 2.202c-.376.16-.805-.161-.751-.537l.644-5.154L.133 6.684c-.268-.322-.107-.805.269-.859l5.1-1.02L8.025.242a.552.552 0 0 1 .913 0l2.523 4.563 5.1 1.02c.43.054.591.59.27.859l-3.544 3.812.644 5.154c.043.343-.223.584-.524.584z" fill="#f2af49"/></g></svg>
