<svg xmlns="http://www.w3.org/2000/svg" width="16.016" height="25" viewBox="0 0 16.016 25" fill='#7d7d7d'><path d="M15.234 0H.781A.781.781 0 0 0 0 .781v22.657a.781.781 0 0 0 .781.781h.586v.391a.391.391 0 0 0 .781 0v-.391h11.719v.391a.391.391 0 0 0 .781 0v-.391h.586a.781.781 0 0 0 .781-.781V.781A.781.781 0 0 0 15.234 0Zm0 23.438H.781V.781h14.453Z"></path><path d="M2.343 16.406h8.984a.781.781 0 0 0 .781-.781V2.343a.781.781 0 0 0-.78-.781H2.343a.781.781 0 0 0-.781.781v13.282a.781.781 0 0 0 .781.781Zm8.984-11.719V6.25H5.662V4.687Zm0 2.344v1.563H2.343V7.031Zm0 2.344v1.563h-4.1V9.375Zm-4.883 0v1.563h-4.1V9.375Zm4.883 2.344v1.563H2.343v-1.564ZM4.882 6.25H2.343V4.687h2.539Zm-2.539 9.375v-1.563h8.984v1.563Zm8.984-11.719H8.789V2.343h2.539Zm-3.32-1.562v1.563H2.343V2.343ZM10.156 17.578H3.515a.781.781 0 0 0-.781.781v2.344a.781.781 0 0 0 .781.781h6.641a.781.781 0 0 0 .781-.781v-2.344a.781.781 0 0 0-.781-.781Zm0 3.125H3.515v-2.344h6.641ZM12.696 19.922h.944a.391.391 0 0 0 0-.781h-.944a.391.391 0 0 0 0 .781ZM13.282 5.468h.781a.391.391 0 0 0 0-.781h-.781a.391.391 0 0 0 0 .781ZM13.282 7.031h.781a.391.391 0 0 0 0-.781h-.781a.391.391 0 0 0 0 .781Z"></path></svg>
