<svg xmlns="http://www.w3.org/2000/svg" width="20" height="15.272" viewBox="0 0 20 15.272"><g transform="translate(-0.005 0)"><g transform="translate(0.005 0)"><path d="M1.855,5.728A1.07,1.07,0,1,1,.3,4.261,13.31,13.31,0,0,1,10.005,0a13.31,13.31,0,0,1,9.709,4.261,1.07,1.07,0,1,1-1.559,1.467,11.064,11.064,0,0,0-16.3,0Z" transform="translate(-0.005 0)" fill="#249af6"/><path d="M57.055,87.269A1.07,1.07,0,0,1,55.5,85.8a9.393,9.393,0,0,1,13.823,0,1.07,1.07,0,1,1-1.559,1.467,7.264,7.264,0,0,0-10.7,0Z" transform="translate(-52.407 -78.575)" fill="#249af6"/><path d="M112.275,168.81a1.07,1.07,0,1,1-1.559-1.467,5.591,5.591,0,0,1,8.225,0,1.07,1.07,0,1,1-1.559,1.467,3.462,3.462,0,0,0-5.106,0Z" transform="translate(-104.828 -157.149)" fill="#249af6"/><path d="M172.3,250.931a1.286,1.286,0,1,1,0,1.819A1.287,1.287,0,0,1,172.3,250.931Z" transform="translate(-163.211 -237.855)" fill="#249af6" fill-rule="evenodd"/></g></g></svg>
