<svg xmlns="http://www.w3.org/2000/svg" xmlns:xlink="http://www.w3.org/1999/xlink" viewBox="0,0,256,256" width="48px" height="48px" fill-rule="nonzero"><defs><linearGradient x1="4.546" y1="13.546" x2="21.628" y2="30.628" gradientUnits="userSpaceOnUse" id="color-1"><stop offset="0.365" stop-color="#199ae0"></stop><stop offset="0.699" stop-color="#1898de"></stop><stop offset="0.819" stop-color="#1691d8"></stop><stop offset="0.905" stop-color="#1186cc"></stop><stop offset="0.974" stop-color="#0a75bc"></stop><stop offset="1" stop-color="#076cb3"></stop></linearGradient><linearGradient x1="20.719" y1="36.281" x2="42.715" y2="14.285" gradientUnits="userSpaceOnUse" id="color-2"><stop offset="0" stop-color="#32bdef"></stop><stop offset="1" stop-color="#1ea2e4"></stop></linearGradient></defs><g fill="none" fill-rule="nonzero" stroke="none" stroke-width="1" stroke-linecap="butt" stroke-linejoin="miter" stroke-miterlimit="10" stroke-dasharray="" stroke-dashoffset="0" font-family="none" font-weight="none" font-size="none" text-anchor="none" style="mix-blend-mode: normal"><g transform="translate(-8,256) rotate(-90) scale(5.33333,5.33333)"><path d="M22.599,38.42l-19.019,-19.019c-0.774,-0.774 -0.774,-2.028 0,-2.802l4.019,-4.019c0.774,-0.774 2.028,-0.774 2.802,0l19.019,19.019c0.774,0.774 0.774,2.028 0,2.802l-4.019,4.019c-0.774,0.773 -2.028,0.773 -2.802,0z" fill="url(#color-1)"></path><path d="M18.58,31.599l19.019,-19.019c0.774,-0.774 2.028,-0.774 2.802,0l4.019,4.019c0.774,0.774 0.774,2.028 0,2.802l-19.019,19.019c-0.774,0.774 -2.028,0.774 -2.802,0l-4.019,-4.019c-0.773,-0.774 -0.773,-2.028 0,-2.802z" fill="url(#color-2)"></path></g></g></svg>