<?xml version="1.0" encoding="utf-8"?>
<svg width="48px" height="48px" viewBox="0 0 48 48" version="1.1" xmlns:xlink="http://www.w3.org/1999/xlink" xmlns="http://www.w3.org/2000/svg">
  <defs>
    <linearGradient gradientUnits="objectBoundingBox" x1="0.5000126" y1="1.0045947" x2="0.5000126" y2="0.29106703" id="gradient_1">
      <stop offset="0%" stop-color="#000000" />
      <stop offset="18.8%" stop-color="#040405" />
      <stop offset="39.699997%" stop-color="#111212" />
      <stop offset="61.5%" stop-color="#262828" />
      <stop offset="83.8%" stop-color="#444647" />
      <stop offset="100%" stop-color="#5E6162" />
    </linearGradient>
    <linearGradient gradientUnits="objectBoundingBox" x1="0.50001913" y1="1.0074595" x2="0.50001925" y2="-0.14455043" id="gradient_2">
      <stop offset="0%" stop-color="#000000" />
      <stop offset="18.8%" stop-color="#040405" />
      <stop offset="39.699997%" stop-color="#111212" />
      <stop offset="61.5%" stop-color="#262828" />
      <stop offset="83.8%" stop-color="#444647" />
      <stop offset="100%" stop-color="#5E6162" />
    </linearGradient>
    <radialGradient gradientUnits="objectBoundingBox" cx="53.39688%" cy="115.88614%" fx="53.39688%" fy="115.88614%" r="107.41065%" gradientTransform="translate(0.5339688,1.1588614),scale(0.48999038,1),translate(-0.5339688,-1.1588614)" id="gradient_3">
      <stop offset="0%" stop-color="#000000" />
      <stop offset="100%" stop-color="#000000" stop-opacity="0" />
    </radialGradient>
    <radialGradient gradientUnits="objectBoundingBox" cx="61.594345%" cy="76.789536%" fx="61.594345%" fy="76.789536%" r="74.4611%" gradientTransform="translate(0.61594343,0.76789534),scale(0.81762534,1),translate(-0.61594343,-0.76789534)" id="gradient_4">
      <stop offset="0%" stop-color="#000000" />
      <stop offset="100%" stop-color="#000000" stop-opacity="0" />
    </radialGradient>
    <linearGradient gradientUnits="objectBoundingBox" x1="0.15680003" y1="0.15680027" x2="0.8528" y2="0.85280037" id="gradient_5">
      <stop offset="0%" stop-color="#FEDE00" />
      <stop offset="100%" stop-color="#FFD000" />
    </linearGradient>
    <path d="M48 0L48 0L48 48L0 48L0 0L48 0Z" id="path_1" />
    <clipPath id="clip_1">
      <use xlink:href="#path_1" />
    </clipPath>
  </defs>
  <g id="Group-65">
    <g id="icons8-cash" clip-path="url(#clip_1)">
      <path d="M48 0L48 0L48 48L0 48L0 0L48 0Z" id="icons8-cash" fill="none" stroke="none" />
      <path d="M9.216 40.372L3.06 23.458C2.871 22.939 3.139 22.365 3.658 22.176L39.366 9.179C39.885 8.99 40.459 9.258 40.648 9.777L46.805 26.691C46.994 27.21 46.726 27.784 46.207 27.973L10.498 40.97C9.979 41.159 9.406 40.891 9.216 40.372L9.216 40.372Z" id="Shape" fill="#61E3A7" stroke="none" />
      <path d="M7.417 20.808L14.257 39.602L42.448 29.341L35.608 10.547L7.417 20.808L7.417 20.808ZM22.113 26.1C20.791 22.467 22.664 18.45 26.297 17.128C29.93 15.806 33.947 17.679 35.269 21.312C36.591 24.945 34.718 28.962 31.085 30.284C27.452 31.606 23.435 29.733 22.113 26.1L22.113 26.1ZM13.657 35.031C13.374 34.252 13.776 33.391 14.554 33.108C15.333 32.825 16.194 33.227 16.477 34.005C16.76 34.784 16.358 35.645 15.58 35.928C14.802 36.211 13.941 35.81 13.657 35.031L13.657 35.031ZM17.416 33.663C17.133 32.884 17.535 32.023 18.313 31.74C19.092 31.457 19.953 31.859 20.236 32.637C20.519 33.416 20.117 34.277 19.339 34.56C18.561 34.843 17.7 34.441 17.416 33.663L17.416 33.663Z" id="Shape" fill="#107C42" fill-rule="evenodd" stroke="none" />
      <path d="M6.096 31.803L7.352 35.253C7.68 35.467 8.053 35.586 8.437 35.586C8.554 35.586 8.672 35.577 8.788 35.556L8.789 35.555L40.962 29.882L46.206 27.973C46.725 27.784 46.993 27.21 46.804 26.691L40.648 9.777C40.459 9.258 39.885 8.99 39.366 9.179L4.355 21.922L6.096 31.803L6.096 31.803Z" id="Shape" fill="#000000" fill-opacity="0.05" stroke="none" />
      <path d="M39.366 9.179L4.831 21.75L6.489 31.155L7.404 34.507C7.605 34.822 7.952 35.037 8.339 35.077C8.457 35.089 8.579 35.085 8.701 35.064L8.702 35.063L40.778 29.407L46.122 27.973C46.491 27.875 46.754 27.581 46.835 27.232C46.84 27.208 46.846 27.185 46.849 27.161C46.859 27.095 46.856 27.026 46.853 26.958C46.847 26.869 46.836 26.779 46.804 26.691L40.648 9.777C40.459 9.258 39.885 8.99 39.366 9.179L39.366 9.179Z" id="Shape" fill="url(#gradient_1)" fill-opacity="0.07" stroke="none" />
      <path d="M7.458 33.76L4.332 16.033C4.236 15.49 4.599 14.971 5.143 14.875L42.566 8.276C43.109 8.18 43.628 8.543 43.724 9.087L46.849 26.814C46.945 27.357 46.582 27.876 46.038 27.972L8.616 34.57C8.072 34.666 7.553 34.303 7.458 33.76L7.458 33.76Z" id="Shape" fill="#61E3A7" stroke="none" />
      <path d="M9.082 14.179L12.555 33.875L42.099 28.666L38.626 8.97L9.082 14.179L9.082 14.179ZM22.636 21.944C21.965 18.137 24.507 14.506 28.314 13.835C32.121 13.164 35.752 15.706 36.423 19.513C37.094 23.32 34.552 26.951 30.745 27.622C26.938 28.293 23.307 25.751 22.636 21.944L22.636 21.944ZM12.758 29.27C12.614 28.454 13.159 27.676 13.975 27.532C14.791 27.388 15.569 27.933 15.713 28.749C15.857 29.565 15.312 30.343 14.496 30.487C13.68 30.631 12.902 30.086 12.758 29.27L12.758 29.27ZM16.697 28.576C16.553 27.76 17.098 26.982 17.914 26.838C18.73 26.694 19.508 27.239 19.652 28.055C19.796 28.871 19.251 29.649 18.435 29.793C17.619 29.937 16.841 29.392 16.697 28.576L16.697 28.576Z" id="Shape" fill="#21A366" fill-rule="evenodd" stroke="none" />
      <path d="M40.207 29L46.039 27.971C46.583 27.876 46.946 27.357 46.85 26.813L43.724 9.087C43.628 8.543 43.109 8.18 42.566 8.276L5.865 14.747L5.865 24.729L6.526 28.474C6.881 28.798 7.348 29 7.865 29L40.207 29L40.207 29Z" id="Shape" fill="#000000" fill-opacity="0.05" stroke="none" />
      <path d="M42.566 8.276L6.364 14.659L6.364 24.717L6.56 26.973C6.56 27.25 6.919 28.237 7.195 28.237C7.373 28.399 8.308 28.5 8.566 28.5L40.537 28.5L45.561 28.056C45.598 28.056 45.722 28.027 45.757 28.019C45.811 28.007 46.015 27.961 46.06 27.933C46.071 27.926 46.1 27.916 46.11 27.908C46.149 27.88 46.313 27.823 46.343 27.785C46.375 27.766 46.405 27.746 46.434 27.724C46.498 27.676 46.553 27.621 46.602 27.559C46.635 27.516 46.664 27.47 46.69 27.421C46.735 27.336 46.774 27.246 46.791 27.15C46.848 27.051 46.814 26.61 46.793 26.49L43.724 9.087C43.628 8.543 43.109 8.18 42.566 8.276L42.566 8.276Z" id="Shape" fill="url(#gradient_2)" fill-opacity="0.07" stroke="none" />
      <path d="M6.865 27L6.865 9C6.865 8.448 7.313 8 7.865 8L45.865 8C46.417 8 46.865 8.448 46.865 9L46.865 27C46.865 27.552 46.417 28 45.865 28L7.865 28C7.313 28 6.865 27.552 6.865 27L6.865 27Z" id="Shape" fill="#61E3A7" stroke="none" />
      <path d="M11.865 8L11.865 28L41.865 28L41.865 8L11.865 8L11.865 8ZM23.865 18C23.865 14.134 26.999 11 30.865 11C34.731 11 37.865 14.134 37.865 18C37.865 21.866 34.731 25 30.865 25C26.999 25 23.865 21.866 23.865 18L23.865 18ZM12.865 23.5C12.865 22.672 13.537 22 14.365 22C15.193 22 15.865 22.672 15.865 23.5C15.865 24.328 15.193 25 14.365 25C13.537 25 12.865 24.328 12.865 23.5L12.865 23.5ZM16.865 23.5C16.865 22.672 17.537 22 18.365 22C19.193 22 19.865 22.672 19.865 23.5C19.865 24.328 19.193 25 18.365 25C17.537 25 16.865 24.328 16.865 23.5L16.865 23.5Z" id="Shape" fill="#33C481" fill-rule="evenodd" stroke="none" />
      <path d="M45.125 28.367C43.13 26.887 40.669 26 38 26C32.348 26 27.608 29.933 26.343 35.203L45.125 28.367L45.125 28.367Z" id="Shape" fill="url(#gradient_3)" stroke="none" />
      <path d="M41 20.778C36.038 20.778 32 24.815 32 29.778C32 30.889 32.212 31.949 32.582 32.932L46.207 27.973C46.54 27.852 46.752 27.567 46.824 27.245C46.83 27.224 46.836 27.203 46.84 27.181C46.847 27.133 46.857 27.087 46.857 27.038C46.858 27.025 46.865 27.014 46.865 27L46.865 22.966C45.288 21.607 43.241 20.778 41 20.778L41 20.778Z" id="Shape" fill="url(#gradient_4)" stroke="none" />
      <path d="M34 29.778C34 25.912 37.134 22.778 41 22.778C44.866 22.778 48 25.912 48 29.778C48 33.644 44.866 36.778 41 36.778C37.134 36.778 34 33.644 34 29.778Z" id="Circle" fill="#FF8F6B" fill-rule="evenodd" stroke="none" />
      <path d="M36 29.778C36 27.0166 38.2386 24.778 41 24.778C43.7614 24.778 46 27.0166 46 29.778C46 32.5394 43.7614 34.778 41 34.778C38.2386 34.778 36 32.5394 36 29.778Z" id="Circle" fill="#ED6C47" fill-rule="evenodd" stroke="none" />
      <path d="M28 38C28 32.4772 32.4772 28 38 28C43.5228 28 48 32.4772 48 38C48 43.5228 43.5228 48 38 48C32.4772 48 28 43.5228 28 38Z" id="Circle" fill="url(#gradient_5)" fill-rule="evenodd" stroke="none" />
      <path d="M30 38C30 33.5817 33.5817 30 38 30C42.4183 30 46 33.5817 46 38C46 42.4183 42.4183 46 38 46C33.5817 46 30 42.4183 30 38Z" id="Circle" fill="#F5BE00" fill-rule="evenodd" stroke="none" />
      <path d="M35.767 41.685L35.767 40.195C36.308 40.526 36.884 40.692 37.495 40.692C37.955 40.692 38.315 40.583 38.574 40.364C38.833 40.145 38.963 39.848 38.963 39.472C38.963 38.688 38.409 38.296 37.301 38.296C36.94 38.296 36.504 38.329 35.992 38.395L35.992 33.972L40.376 33.972L40.376 35.397L37.483 35.397L37.483 36.981C37.715 36.959 37.934 36.948 38.14 36.948C38.953 36.948 39.59 37.162 40.05 37.588C40.51 38.015 40.74 38.59 40.74 39.311C40.74 40.109 40.466 40.762 39.917 41.268C39.369 41.775 38.625 42.027 37.686 42.027C36.926 42.028 36.286 41.914 35.767 41.685L35.767 41.685Z" id="Shape" fill="#FEE119" stroke="none" />
      <path d="M0.447754 -0.0334473L48.4478 47.9666" id="Ligne-4" fill="none" fill-rule="evenodd" stroke="#E52030" stroke-width="2.5" stroke-linecap="round" />
    </g>
  </g>
</svg>