<svg xmlns="http://www.w3.org/2000/svg" xmlns:xlink="http://www.w3.org/1999/xlink" viewBox="0,0,256,256" width="48px" height="48px" fill-rule="nonzero"><defs><linearGradient x1="4.872" y1="4.872" x2="45.811" y2="45.811" gradientUnits="userSpaceOnUse" id="color-1"><stop offset="0" stop-color="#0086fa"></stop><stop offset="0.587" stop-color="#1492ff"></stop><stop offset="1" stop-color="#006bc7"></stop></linearGradient></defs><g fill="none" fill-rule="nonzero" stroke="none" stroke-width="1" stroke-linecap="butt" stroke-linejoin="miter" stroke-miterlimit="10" stroke-dasharray="" stroke-dashoffset="0" font-family="none" font-weight="none" font-size="none" text-anchor="none" style="mix-blend-mode: normal"><g transform="scale(5.33333,5.33333)"><path d="M43.125,9h-38.25c-1.588,0 -2.875,1.287 -2.875,2.875v24.25c0,1.588 1.287,2.875 2.875,2.875h38.25c1.588,0 2.875,-1.287 2.875,-2.875v-24.25c0,-1.588 -1.287,-2.875 -2.875,-2.875z" fill="url(#color-1)"></path><path d="M18.847,33.194c-2.38,0 -4.78,-1.54 -4.78,-4.981c0,-0.135 0.004,-0.27 0.011,-0.401l-2.79,4.284c-0.355,0.548 -0.96,0.875 -1.614,0.875h-1.61c-0.487,0 -0.934,-0.266 -1.166,-0.694c-0.232,-0.429 -0.211,-0.948 0.055,-1.356l4.023,-6.19c-0.613,0.249 -1.305,0.381 -2.058,0.381c-1.653,0 -4.78,-1.041 -4.78,-4.98c0,-3.185 2.033,-5.325 5.059,-5.325c2.891,0 4.758,1.972 4.758,5.025c0,0.11 -0.003,0.219 -0.008,0.327l2.765,-4.253c0.358,-0.55 0.962,-0.877 1.616,-0.877h1.63c0.487,0.001 0.934,0.267 1.165,0.695c0.23,0.426 0.211,0.945 -0.053,1.353l-4.045,6.209c0.624,-0.259 1.33,-0.397 2.1,-0.397c2.935,0 4.758,1.917 4.758,5.003c0,3.171 -2.024,5.302 -5.036,5.302zM19.024,26.845c-0.229,0 -0.611,0 -0.611,1.256c0,1.135 0.314,1.135 0.567,1.135c0.216,0 0.578,0 0.578,-1.224c0.001,-0.274 -0.037,-1.167 -0.534,-1.167zM9.13,18.763c-0.233,0 -0.624,0 -0.624,1.256c0,1.135 0.315,1.135 0.546,1.135c0.217,0 0.579,0 0.579,-1.224c0,-1.167 -0.326,-1.167 -0.501,-1.167z" fill="#000000" opacity="0.05"></path><path d="M18.847,32.694c-2.131,0 -4.28,-1.386 -4.28,-4.481c0,-2.931 1.789,-4.825 4.559,-4.825c2.666,0 4.258,1.683 4.258,4.503c-0.001,2.918 -1.781,4.803 -4.537,4.803zM19.024,26.345c-0.333,0 -1.111,0 -1.111,1.756c0,1.635 0.721,1.635 1.067,1.635c0.322,0 1.078,0 1.078,-1.724c0.001,-0.501 -0.1,-1.667 -1.034,-1.667zM8.064,32.471c-0.304,0 -0.582,-0.166 -0.727,-0.433c-0.145,-0.267 -0.132,-0.59 0.034,-0.844l9.759,-15.016c0.266,-0.407 0.713,-0.65 1.197,-0.65h1.63c0.303,0 0.581,0.167 0.725,0.433c0.145,0.267 0.132,0.59 -0.032,0.844l-9.782,15.018c-0.264,0.406 -0.711,0.648 -1.195,0.648zM8.919,24.611c-1.59,0 -4.28,-0.944 -4.28,-4.48c0,-2.931 1.789,-4.825 4.559,-4.825c2.626,0 4.258,1.734 4.258,4.525c-0.001,2.904 -1.781,4.78 -4.537,4.78zM9.13,18.263c-0.336,0 -1.124,0 -1.124,1.756c0,1.635 0.706,1.635 1.046,1.635c0.323,0 1.079,0 1.079,-1.724c0,-1.667 -0.701,-1.667 -1.001,-1.667z" fill="#000000" opacity="0.07"></path><path d="M8.919,24.111c-1.443,0 -3.78,-0.795 -3.78,-3.981c0,-2.757 1.64,-4.325 4.058,-4.325c2.344,0 3.758,1.488 3.758,4.025c0,2.537 -1.492,4.281 -4.036,4.281zM20.23,16.533l-9.78,15.017c-0.171,0.263 -0.464,0.421 -0.777,0.421h-1.609c-0.259,0 -0.415,-0.287 -0.274,-0.504l9.76,-15.017c0.171,-0.263 0.464,-0.422 0.778,-0.422h1.63c0.258,0 0.413,0.288 0.272,0.505zM9.13,17.763c-1.082,0 -1.623,0.752 -1.623,2.257c0,1.423 0.515,2.134 1.545,2.134c1.052,0 1.579,-0.742 1.579,-2.224c0,-1.445 -0.5,-2.167 -1.501,-2.167zM18.847,32.194c-2,0 -3.78,-1.294 -3.78,-3.981c0,-2.687 1.635,-4.325 4.058,-4.325c2.423,0 3.758,1.476 3.758,4.003c0,2.527 -1.491,4.303 -4.036,4.303zM19.024,25.845c-1.075,0 -1.612,0.752 -1.612,2.257c0,1.423 0.523,2.134 1.567,2.134c1.052,0 1.579,-0.742 1.579,-2.224c0.001,-1.107 -0.423,-2.167 -1.534,-2.167z" fill="#ffffff"></path><path d="M42.5,19h-14c-0.276,0 -0.5,-0.224 -0.5,-0.5v-1c0,-0.276 0.224,-0.5 0.5,-0.5h14c0.276,0 0.5,0.224 0.5,0.5v1c0,0.276 -0.224,0.5 -0.5,0.5z" fill="#1c5d95"></path><path d="M40.5,23h-12c-0.276,0 -0.5,-0.224 -0.5,-0.5v-1c0,-0.276 0.224,-0.5 0.5,-0.5h12c0.276,0 0.5,0.224 0.5,0.5v1c0,0.276 -0.224,0.5 -0.5,0.5z" fill="#1c5d95"></path><path d="M40.5,31h-12c-0.276,0 -0.5,-0.224 -0.5,-0.5v-1c0,-0.276 0.224,-0.5 0.5,-0.5h12c0.276,0 0.5,0.224 0.5,0.5v1c0,0.276 -0.224,0.5 -0.5,0.5z" fill="#1c5d95"></path><path d="M42.5,27h-14c-0.276,0 -0.5,-0.224 -0.5,-0.5v-1c0,-0.276 0.224,-0.5 0.5,-0.5h14c0.276,0 0.5,0.224 0.5,0.5v1c0,0.276 -0.224,0.5 -0.5,0.5z" fill="#1c5d95"></path></g></g></svg>