<svg xmlns="http://www.w3.org/2000/svg" xmlns:xlink="http://www.w3.org/1999/xlink" viewBox="0,0,256,256" width="48px" height="48px" fill-rule="nonzero"><defs><linearGradient x1="5.025" y1="4.804" x2="41.62" y2="41.825" gradientUnits="userSpaceOnUse" id="color-1"><stop offset="0" stop-color="#0d61a9"></stop><stop offset="1" stop-color="#16528c"></stop></linearGradient><linearGradient x1="2.9289" y1="2.9289" x2="17.0711" y2="17.0711" gradientUnits="userSpaceOnUse" id="color-2"><stop offset="0" stop-color="#21ad64"></stop><stop offset="1" stop-color="#088242"></stop></linearGradient></defs><g fill="none" fill-rule="nonzero" stroke="none" stroke-width="1" stroke-linecap="butt" stroke-linejoin="miter" stroke-miterlimit="10" stroke-dasharray="" stroke-dashoffset="0" font-family="none" font-weight="none" font-size="none" text-anchor="none" style="mix-blend-mode: normal"><g transform="scale(5.33333,5.33333)"><path d="M40,6h-32c-1.105,0 -2,0.895 -2,2v32c0,1.105 0.895,2 2,2h32c1.105,0 2,-0.895 2,-2v-32c0,-1.105 -0.895,-2 -2,-2z" fill="url(#color-1)"></path><path d="M11.722,19h20.556c0.399,0 0.722,0.323 0.722,0.722v1.556c0,0.399 -0.323,0.722 -0.722,0.722h-20.556c-0.399,0 -0.722,-0.323 -0.722,-0.722v-1.556c0,-0.399 0.323,-0.722 0.722,-0.722z" fill="#50e6ff"></path><path d="M11.722,26h24.556c0.399,0 0.722,0.323 0.722,0.722v1.556c0,0.399 -0.323,0.722 -0.722,0.722h-24.556c-0.399,0 -0.722,-0.323 -0.722,-0.722v-1.556c0,-0.399 0.323,-0.722 0.722,-0.722z" fill="#50e6ff"></path><path d="M11.722,33h20.556c0.399,0 0.722,0.323 0.722,0.722v1.556c0,0.399 -0.323,0.722 -0.722,0.722h-20.556c-0.399,0 -0.722,-0.323 -0.722,-0.722v-1.556c0,-0.399 0.323,-0.722 0.722,-0.722z" fill="#50e6ff"></path><path d="M11.722,12h24.556c0.399,0 0.722,0.323 0.722,0.722v1.556c0,0.399 -0.323,0.722 -0.722,0.722h-24.556c-0.399,0 -0.722,-0.323 -0.722,-0.722v-1.556c0,-0.399 0.323,-0.722 0.722,-0.722z" fill="#50e6ff"></path></g></g><g fill="none" fill-rule="nonzero" stroke="none" stroke-width="1" stroke-linecap="butt" stroke-linejoin="miter" stroke-miterlimit="10" stroke-dasharray="" stroke-dashoffset="0" font-family="none" font-weight="none" font-size="none" text-anchor="none" style="mix-blend-mode: normal"><g transform="translate(149.33333,149.33333) scale(5.33333,5.33333)" id="overlay"><path transform="translate(10,10)" d="M-10,0c0,-5.52285 4.47715,-10 10,-10c5.52285,0 10,4.47715 10,10c0,5.52285 -4.47715,10 -10,10c-5.52285,0 -10,-4.47715 -10,-10z" fill="url(#color-2)"></path><path d="M10.5,15h-1c-0.276,0 -0.5,-0.224 -0.5,-0.5v-9c0,-0.276 0.224,-0.5 0.5,-0.5h1c0.276,0 0.5,0.224 0.5,0.5v9c0,0.276 -0.224,0.5 -0.5,0.5z" fill="#ffffff"></path><path d="M5,10.5v-1c0,-0.276 0.224,-0.5 0.5,-0.5h9c0.276,0 0.5,0.224 0.5,0.5v1c0,0.276 -0.224,0.5 -0.5,0.5h-9c-0.276,0 -0.5,-0.224 -0.5,-0.5z" fill="#ffffff"></path></g></g></svg>