<svg xmlns="http://www.w3.org/2000/svg" xmlns:xlink="http://www.w3.org/1999/xlink" viewBox="0,0,256,256" width="48px" height="48px" fill-rule="nonzero"><defs><linearGradient x1="19.59832" y1="22.03764" x2="24.25603" y2="17.37993" gradientUnits="userSpaceOnUse" id="color-1"><stop offset="0" stop-color="#fede00"></stop><stop offset="0.787" stop-color="#ffd400"></stop><stop offset="1" stop-color="#ffd000"></stop></linearGradient><linearGradient x1="25.82793" y1="28.53595" x2="30.09532" y2="24.26856" gradientUnits="userSpaceOnUse" id="color-2"><stop offset="0" stop-color="#fede00"></stop><stop offset="0.567" stop-color="#fed900"></stop><stop offset="1" stop-color="#ffd000"></stop></linearGradient><linearGradient x1="9.65117" y1="37.69583" x2="5.33679" y2="42.08221" gradientUnits="userSpaceOnUse" id="color-3"><stop offset="0.166" stop-color="#c9cdcf"></stop><stop offset="0.469" stop-color="#e1e2e4"></stop><stop offset="0.859" stop-color="#e4e4e6"></stop></linearGradient><linearGradient x1="37.88812" y1="10.75488" x2="42.16128" y2="6.38172" gradientUnits="userSpaceOnUse" id="color-4"><stop offset="0.222" stop-color="#c9cdcf"></stop><stop offset="0.556" stop-color="#e1e2e4"></stop><stop offset="0.859" stop-color="#e4e4e6"></stop></linearGradient><linearGradient x1="2.9289" y1="2.929" x2="17.0711" y2="17.071" gradientUnits="userSpaceOnUse" id="color-5"><stop offset="0" stop-color="#21ad64"></stop><stop offset="1" stop-color="#088242"></stop></linearGradient></defs><g fill="none" fill-rule="nonzero" stroke="none" stroke-width="1" stroke-linecap="butt" stroke-linejoin="miter" stroke-miterlimit="10" stroke-dasharray="" stroke-dashoffset="0" font-family="none" font-weight="none" font-size="none" text-anchor="none" style="mix-blend-mode: normal"><g transform="scale(5.33333,5.33333)"><path d="M19.404,22.232v0c-0.586,-0.586 -0.586,-1.536 0,-2.121l4.596,-4.596l2.121,2.121l-4.596,4.596c-0.586,0.586 -1.535,0.586 -2.121,0z" fill="url(#color-1)"></path><path d="M25.768,28.596v0c-0.586,-0.586 -0.586,-1.536 0,-2.121l4.596,-4.596l2.121,2.121l-4.596,4.596c-0.586,0.586 -1.535,0.586 -2.121,0z" fill="url(#color-2)"></path><path d="M4.879,42.414v0c0.781,0.781 2.047,0.781 2.828,0l13.111,-13.111l-2.828,-2.828l-13.111,13.111c-0.781,0.781 -0.781,2.047 0,2.828z" fill="url(#color-3)"></path><path d="M11.999,41.697l-5.696,-5.696c-1.071,-1.071 -1.445,-2.656 -0.966,-4.093v0c0.416,-1.248 1.117,-2.382 2.047,-3.312l4.95,-4.95l12.021,12.021l-4.95,4.95c-0.93,0.93 -2.064,1.631 -3.312,2.047v0c-1.438,0.479 -3.023,0.105 -4.094,-0.967z" fill="#a1aab3"></path><path d="M43.121,5.586v0c-0.781,-0.781 -2.047,-0.781 -2.828,0l-13.111,13.111l2.828,2.828l13.111,-13.111c0.781,-0.781 0.781,-2.047 0,-2.828z" fill="url(#color-4)"></path><path d="M36.001,6.303l5.696,5.696c1.071,1.071 1.445,2.656 0.966,4.093v0c-0.416,1.248 -1.117,2.382 -2.047,3.312l-4.95,4.95l-12.02,-12.021l4.95,-4.95c0.93,-0.93 2.064,-1.631 3.312,-2.047v0c1.437,-0.479 3.022,-0.105 4.093,0.967z" fill="#a1aab3"></path><path d="M23.93,11.202l12.868,12.868c0.589,0.589 0.589,1.543 0,2.132l-1.403,1.403c-0.589,0.589 -1.543,0.589 -2.132,0l-12.869,-12.867c-0.589,-0.589 -0.589,-1.543 0,-2.132l1.403,-1.403c0.59,-0.59 1.544,-0.59 2.133,-0.001z" fill="#8795a1"></path><path d="M24.07,36.798l-12.868,-12.868c-0.589,-0.589 -0.589,-1.543 0,-2.132l1.403,-1.403c0.589,-0.589 1.543,-0.589 2.132,0l12.868,12.868c0.589,0.589 0.589,1.543 0,2.132l-1.403,1.403c-0.589,0.589 -1.543,0.589 -2.132,0z" fill="#8795a1"></path></g></g><g fill="none" fill-rule="nonzero" stroke="none" stroke-width="1" stroke-linecap="butt" stroke-linejoin="miter" stroke-miterlimit="10" stroke-dasharray="" stroke-dashoffset="0" font-family="none" font-weight="none" font-size="none" text-anchor="none" style="mix-blend-mode: normal"><g transform="translate(148.66667,147.66667) scale(5.33333,5.33333)" id="overlay"><path transform="translate(10,10)" d="M-10,0c0,-5.52285 4.47715,-10 10,-10c5.52285,0 10,4.47715 10,10c0,5.52285 -4.47715,10 -10,10c-5.52285,0 -10,-4.47715 -10,-10z" fill="url(#color-5)"></path><path d="M8.646,14.354l-4,-4c-0.195,-0.195 -0.195,-0.512 0,-0.707l0.707,-0.707c0.195,-0.195 0.512,-0.195 0.707,0l2.94,2.939l5.439,-5.439c0.195,-0.195 0.512,-0.195 0.707,0l0.707,0.707c0.195,0.195 0.195,0.512 0,0.707l-6.5,6.5c-0.195,0.195 -0.512,0.195 -0.707,0z" fill="#ffffff"></path></g></g></svg>