<?xml version="1.0" encoding="utf-8"?>
<svg width="34.33008px" height="11.034424px" viewBox="0 0 34.33008 11.034424" version="1.1" xmlns:xlink="http://www.w3.org/1999/xlink" xmlns="http://www.w3.org/2000/svg">
<defs>
    <linearGradient gradientUnits="userSpaceOnUse" x1="17.165949" y1="0" x2="17.165949" y2="30.000303" id="gradient_1">
      <stop offset="0%" stop-color="#35C1F1" />
      <stop offset="100%" stop-color="#0D62AB" />
    </linearGradient>
  </defs>
  <path d="M24.9046 11.0345L24.9046 0L34.33 0L34.33 2.41379L28.4551 2.41379L28.4551 4.31035L33.8447 4.31035L33.8447 6.72414L28.4551 6.72414L28.4551 8.62069L34.3045 8.62069L34.3045 11.0345L24.9046 11.0345ZM14.9933 0L17.139 3.21121L17.2411 3.21121L19.4123 0L23.3715 0L19.4634 5.51724L23.5248 11.0345L19.4634 11.0345L17.2411 7.75862L17.139 7.75862L14.9167 11.0345L10.8809 11.0345L14.8911 5.51724L11.0086 0L14.9933 0ZM0 11.0345L0 0L9.42545 0L9.42545 2.41379L3.55051 2.41379L3.55051 4.31035L8.94013 4.31035L8.94013 6.72414L3.55051 6.72414L3.55051 8.62069L9.39991 8.62069L9.39991 11.0345L0 11.0345Z" id="EXE" fill="url(#gradient_1)" stroke="none" />
</svg>
