<svg xmlns="http://www.w3.org/2000/svg" xmlns:xlink="http://www.w3.org/1999/xlink" fill="#ffffff" version="1.1" x="0px" y="0px" viewBox="0 0 100 125" style="enable-background:new 0 0 100 100;" xml:space="preserve"><path d="M17.931,42.51v41.732c0,3.312,2.695,6.008,6.008,6.008h17.957c2.971,0,5.439-2.171,5.917-5.008h4.375  c0.478,2.837,2.946,5.008,5.917,5.008h17.957c3.312,0,6.008-2.695,6.008-6.008V42.51c0-2.508-0.793-4.887-2.235-6.7  c-2.657-3.345-4.181-8.153-4.181-13.195c0-2.179,0.276-4.306,0.819-6.321c0.43-1.596,0.107-3.254-0.886-4.55  c-0.97-1.267-2.444-1.993-4.045-1.993H66.25c-0.133-0.001-0.267,0.022-0.397,0.078c-0.003,0.001-0.006,0.002-0.008,0.003  c-0.001,0-0.002,0.001-0.003,0.001c-19.151,8.017-31.388,0.176-31.528,0.085c-0.027-0.018-0.059-0.02-0.087-0.036  c-0.056-0.03-0.112-0.052-0.172-0.071c-0.071-0.022-0.139-0.038-0.212-0.044c-0.028-0.002-0.054-0.017-0.083-0.017h-6.302  c-1.371,0-2.496,0.523-3.254,1.513c-0.941,1.229-1.194,3.109-0.676,5.03c0.543,2.016,0.819,4.143,0.819,6.321  c0,5.042-1.524,9.851-4.181,13.195C18.725,37.623,17.931,40.002,17.931,42.51z M52.097,58.921v24.321h-4.194V58.921H52.097z   M47.903,56.921V46.717h4.194v10.204H47.903z M71.542,11.75c0.973,0,1.869,0.44,2.457,1.209c0.612,0.799,0.81,1.823,0.543,2.812  c-0.59,2.187-0.889,4.488-0.889,6.843c0,5.485,1.682,10.748,4.616,14.439c1.161,1.461,1.8,3.398,1.8,5.456v41.732  c0,2.21-1.798,4.008-4.008,4.008H58.104c-2.209,0-4.007-1.798-4.007-4.008V58.921h2.499c0.552,0,1-0.447,1-1s-0.448-1-1-1h-2.499  V46.717h2.499c0.552,0,1-0.447,1-1s-0.448-1-1-1h-2.499V33.778c0-2.293,1.271-4.371,3.237-5.294  c6.071-2.853,9.856-10.852,9.943-16.734H71.542z M48.893,15.491c4.595,0,10.104-0.853,16.36-3.282  c-0.274,5.243-3.722,12.094-8.768,14.465c-2.665,1.251-4.387,4.039-4.387,7.104v10.938h-4.194V33.778  c0-3.065-1.722-5.854-4.387-7.104c-4.97-2.335-8.394-9.018-8.759-14.228C37.088,13.601,41.955,15.491,48.893,15.491z M26.347,22.614  c0-2.354-0.299-4.656-0.889-6.843c-0.352-1.304-0.224-2.565,0.333-3.292c0.371-0.484,0.931-0.729,1.667-0.729h5.264  c0.087,5.883,3.873,13.882,9.944,16.734c1.966,0.923,3.237,3.001,3.237,5.294v10.938h-2.499c-0.552,0-1,0.447-1,1s0.448,1,1,1h2.499  v10.204h-2.499c-0.552,0-1,0.447-1,1s0.448,1,1,1h2.499v25.321c0,2.21-1.798,4.008-4.007,4.008H23.939  c-2.21,0-4.008-1.798-4.008-4.008V42.51c0-2.058,0.64-3.995,1.8-5.456C24.665,33.362,26.347,28.1,26.347,22.614z"/><path d="M57.045,68.09v11.713c0,1.913,1.556,3.47,3.469,3.47h13.209c1.913,0,3.469-1.557,3.469-3.47V68.09c0-0.553-0.448-1-1-1  H58.045C57.493,67.09,57.045,67.537,57.045,68.09z M75.192,69.09v2.018h-1.344c-0.552,0-1,0.447-1,1s0.448,1,1,1h1.344v6.695  c0,0.811-0.659,1.47-1.469,1.47H60.514c-0.81,0-1.469-0.659-1.469-1.47v-6.695h1.297c0.552,0,1-0.447,1-1s-0.448-1-1-1h-1.297V69.09  H75.192z"/><path d="M65.129,60.899h7.209c1.913,0,3.469-1.557,3.469-3.47V45.717c0-0.553-0.448-1-1-1H62.661c-0.552,0-1,0.447-1,1V57.43  C61.661,59.343,63.217,60.899,65.129,60.899z M63.661,46.717h10.147V57.43c0,0.811-0.659,1.47-1.469,1.47h-7.209  c-0.81,0-1.469-0.659-1.469-1.47V46.717z"/><path d="M26.732,60.899h7.209c1.913,0,3.469-1.557,3.469-3.47V45.717c0-0.553-0.448-1-1-1H24.263c-0.552,0-1,0.447-1,1V57.43  C23.263,59.343,24.819,60.899,26.732,60.899z M25.263,46.717H35.41V57.43c0,0.811-0.659,1.47-1.469,1.47h-7.209  c-0.81,0-1.469-0.659-1.469-1.47V46.717z"/><path d="M63.62,73.107h1.838c0.552,0,1-0.447,1-1s-0.448-1-1-1H63.62c-0.552,0-1,0.447-1,1S63.067,73.107,63.62,73.107z"/><path d="M68.734,73.107h1.838c0.552,0,1-0.447,1-1s-0.448-1-1-1h-1.838c-0.552,0-1,0.447-1,1S68.182,73.107,68.734,73.107z"/><path d="M26.312,83.272h13.209c1.913,0,3.469-1.557,3.469-3.47V68.09c0-0.553-0.448-1-1-1H23.844c-0.552,0-1,0.447-1,1v11.713  C22.844,81.716,24.4,83.272,26.312,83.272z M40.991,69.09v2.018h-1.344c-0.552,0-1,0.447-1,1s0.448,1,1,1h1.344v6.695  c0,0.811-0.659,1.47-1.469,1.47H26.312c-0.81,0-1.469-0.659-1.469-1.47v-6.695h1.297c0.552,0,1-0.447,1-1s-0.448-1-1-1h-1.297V69.09  H40.991z"/><path d="M29.418,73.107h1.838c0.552,0,1-0.447,1-1s-0.448-1-1-1h-1.838c-0.552,0-1,0.447-1,1S28.866,73.107,29.418,73.107z"/><path d="M34.533,73.107h1.837c0.552,0,1-0.447,1-1s-0.448-1-1-1h-1.837c-0.552,0-1,0.447-1,1S33.98,73.107,34.533,73.107z"/></svg>
