<?xml version="1.0" encoding="UTF-8" standalone="no"?>
<svg
   xmlns:dc="http://purl.org/dc/elements/1.1/"
   xmlns:cc="http://creativecommons.org/ns#"
   xmlns:rdf="http://www.w3.org/1999/02/22-rdf-syntax-ns#"
   xmlns:svg="http://www.w3.org/2000/svg"
   xmlns="http://www.w3.org/2000/svg"
   xml:space="preserve"
   enable-background="new 0 0 200 200"
   viewBox="0 0 200 200"
   height="200px"
   width="200px"
   y="0px"
   x="0px"
   id="Calque_1"
   version="1.1"><metadata
     id="metadata61"><rdf:RDF><cc:Work
         rdf:about=""><dc:format>image/svg+xml</dc:format><dc:type
           rdf:resource="http://purl.org/dc/dcmitype/StillImage" /></cc:Work></rdf:RDF></metadata><defs
     id="defs59" /><g
     id="g12"><path
       id="path2"
       d="M48.059,148.45l-1.556-4.088H33.267l-1.556,4.176c-0.607,1.628-1.125,2.728-1.554,3.298   c-0.43,0.571-1.133,0.856-2.11,0.856c-0.83,0-1.562-0.304-2.199-0.911c-0.636-0.606-0.955-1.296-0.955-2.065   c0-0.443,0.074-0.903,0.222-1.376c0.148-0.474,0.393-1.133,0.733-1.977l8.328-21.145c0.238-0.607,0.522-1.336,0.856-2.187   c0.333-0.852,0.688-1.557,1.066-2.121c0.378-0.562,0.873-1.018,1.488-1.366c0.614-0.347,1.373-0.522,2.277-0.522   c0.918,0,1.684,0.174,2.298,0.522c0.615,0.348,1.11,0.795,1.489,1.342c0.377,0.549,0.695,1.139,0.954,1.768   c0.26,0.629,0.59,1.468,0.989,2.52l8.507,21.011c0.667,1.598,0.999,2.761,0.999,3.487c0,0.755-0.315,1.446-0.943,2.076   c-0.63,0.63-1.389,0.944-2.277,0.944c-0.518,0-0.962-0.093-1.333-0.278c-0.37-0.184-0.681-0.437-0.932-0.756   c-0.252-0.316-0.522-0.805-0.811-1.465C48.514,149.534,48.266,148.953,48.059,148.45z M34.999,139.411h9.728l-4.908-13.438   L34.999,139.411z"
       fill="#1D1719" /><path
       id="path4"
       d="M59.121,144.54l16.724-20.011h-14.37c-1.007,0-1.766-0.222-2.277-0.665   c-0.511-0.444-0.766-1.029-0.766-1.755c0-0.755,0.255-1.367,0.766-1.833c0.511-0.466,1.27-0.7,2.277-0.7h18.523   c2.399,0,3.598,1.117,3.598,3.354c0,1.066-0.2,1.917-0.599,2.554c-0.401,0.636-1.207,1.665-2.422,3.088l-15.636,18.611h17.236   c1.022,0,1.784,0.212,2.287,0.633c0.504,0.423,0.755,1.011,0.755,1.766c0,0.784-0.251,1.405-0.755,1.865   c-0.503,0.459-1.265,0.689-2.287,0.689H61.031c-1.437,0-2.518-0.321-3.243-0.967c-0.726-0.644-1.088-1.506-1.088-2.587   c0-0.37,0.059-0.71,0.178-1.021c0.119-0.312,0.277-0.603,0.477-0.877c0.201-0.275,0.478-0.623,0.833-1.045   C58.543,145.218,58.854,144.85,59.121,144.54z"
       fill="#1D1719" /><path
       id="path6"
       d="M110.56,125.018h-7.195v23.653c0,1.364-0.304,2.373-0.911,3.032c-0.608,0.66-1.393,0.989-2.354,0.989   c-0.978,0-1.774-0.331-2.388-0.998c-0.614-0.668-0.921-1.674-0.921-3.022v-23.653h-7.196c-1.125,0-1.962-0.248-2.51-0.744   c-0.548-0.496-0.822-1.151-0.822-1.966c0-0.843,0.285-1.51,0.856-1.999c0.569-0.489,1.395-0.732,2.476-0.732h20.966   c1.14,0,1.987,0.252,2.543,0.755c0.555,0.504,0.833,1.162,0.833,1.976c0,0.815-0.28,1.47-0.845,1.966   C112.529,124.77,111.687,125.018,110.56,125.018z"
       fill="#1D1719" /><path
       id="path8"
       d="M139.345,124.663h-14.859v7.994h13.683c1.007,0,1.758,0.226,2.253,0.678   c0.497,0.452,0.744,1.048,0.744,1.789c0,0.74-0.244,1.343-0.732,1.81c-0.489,0.467-1.244,0.698-2.265,0.698h-13.683v9.263h15.369   c1.037,0,1.818,0.24,2.344,0.722c0.526,0.481,0.788,1.122,0.788,1.92c0,0.771-0.262,1.397-0.788,1.876   c-0.526,0.482-1.308,0.723-2.344,0.723h-17.923c-1.436,0-2.469-0.319-3.097-0.955c-0.631-0.635-0.945-1.665-0.945-3.087v-24.477   c0-0.947,0.141-1.72,0.421-2.32c0.283-0.6,0.723-1.037,1.323-1.309c0.6-0.275,1.366-0.412,2.298-0.412h17.412   c1.052,0,1.834,0.234,2.345,0.7c0.51,0.466,0.765,1.077,0.765,1.833c0,0.77-0.256,1.387-0.765,1.854   C141.178,124.429,140.396,124.663,139.345,124.663z"
       fill="#1D1719" /><path
       id="path10"
       d="M154.915,123.019v11.416l12.948-13.504c0.623-0.652,1.15-1.133,1.586-1.443   c0.438-0.313,1.019-0.467,1.746-0.467c0.947,0,1.712,0.277,2.298,0.833c0.585,0.555,0.877,1.233,0.877,2.032   c0,0.963-0.496,1.919-1.488,2.865l-8.017,7.595l9.238,13.238c0.651,0.919,1.14,1.722,1.466,2.411   c0.326,0.687,0.489,1.357,0.489,2.009c0,0.725-0.286,1.354-0.855,1.887c-0.571,0.534-1.345,0.8-2.321,0.8   c-0.919,0-1.667-0.196-2.243-0.589c-0.578-0.392-1.065-0.913-1.466-1.565c-0.401-0.652-0.757-1.244-1.067-1.778l-7.795-11.993   l-5.397,5.176v6.728c0,1.364-0.312,2.373-0.932,3.032c-0.624,0.66-1.422,0.989-2.399,0.989c-0.564,0-1.105-0.148-1.623-0.444   c-0.517-0.296-0.917-0.696-1.198-1.199c-0.207-0.415-0.334-0.896-0.379-1.443c-0.043-0.548-0.065-1.341-0.065-2.378v-24.208   c0-1.332,0.292-2.332,0.878-2.998c0.585-0.665,1.381-0.999,2.387-0.999c0.992,0,1.794,0.33,2.409,0.988   C154.607,120.669,154.915,121.672,154.915,123.019z"
       fill="#1D1719" /></g><path
     id="path14"
     d="M39.458,114.666c0,0,46.113-103.909,82.139-103.909c0,0,26.365-1.529,43.116,72.298l4.551,31.498h-24.865  c0,0-2.177-81.522-25.036-88.683c0,0-8.552-0.5-26.35,26.402c0,0-21.073,28.079-7.607,28.042  c11.356-0.034,34.542-5.501,34.542-5.501s-50.035,13.131-62.876,39.851H39.458z"
     fill="#2F4E84" /><g
     id="g32"><path
       id="path16"
       d="M31.937,168h-5.77v5.498h5.77v-1.874l2.17,0.435v1.041c0,0.823-0.165,1.375-0.492,1.66   c-0.328,0.284-0.935,0.425-1.822,0.425h-5.5c-0.89,0-1.494-0.145-1.814-0.437c-0.319-0.287-0.48-0.841-0.48-1.648v-4.642   c0-0.822,0.16-1.373,0.48-1.654c0.32-0.289,0.924-0.43,1.814-0.43h5.5c0.887,0,1.494,0.141,1.822,0.43   c0.327,0.281,0.492,0.832,0.492,1.654v0.853l-2.17,0.314V168z"
       fill="#2B4C83" /><path
       id="path18"
       d="M43.167,175.185l5.23-8.812h2.06l5.313,8.812h-2.418l-1.104-1.938h-5.831l-1.104,1.938H43.167z    M47.334,171.645h4.042l-2.064-3.67L47.334,171.645z"
       fill="#2B4C83" /><path
       id="path20"
       d="M72.979,167.956h-6.064v1.854h5.729c0.889,0,1.493,0.144,1.812,0.428c0.321,0.285,0.48,0.834,0.48,1.655   v1.206c0,0.823-0.159,1.375-0.48,1.66c-0.319,0.284-0.923,0.425-1.812,0.425h-5.729c-0.888,0-1.497-0.141-1.822-0.425   c-0.326-0.285-0.49-0.837-0.49-1.66v-0.247l1.918-0.355v1.042h6.477v-2.024h-5.707c-0.875,0-1.478-0.136-1.814-0.423   c-0.334-0.281-0.5-0.839-0.5-1.656v-0.979c0-0.822,0.166-1.373,0.5-1.654c0.335-0.289,0.939-0.43,1.814-0.43h5.228   c0.848,0,1.444,0.133,1.791,0.394c0.348,0.266,0.521,0.773,0.521,1.52v0.208l-1.853,0.397V167.956z"
       fill="#2B4C83" /><path
       id="path22"
       d="M85.519,175.185v-8.812h2.167v3.355h6.706v-3.355h2.144v8.812h-2.144v-3.709h-6.706v3.709H85.519z"
       fill="#2B4C83" /><path
       id="path24"
       d="M107.352,175.185v-8.812h2.168v7.166h6.914v1.646H107.352z"
       fill="#2B4C83" /><path
       id="path26"
       d="M125.727,175.185v-8.812h9.459v1.563h-7.294v1.911h4.251v1.527h-4.251v2.165h7.398v1.646H125.727z"
       fill="#2B4C83" /><path
       id="path28"
       d="M153.415,167.956h-6.065v1.854h5.729c0.889,0,1.488,0.144,1.811,0.428c0.319,0.285,0.48,0.834,0.48,1.655   v1.206c0,0.823-0.161,1.375-0.48,1.66c-0.324,0.284-0.923,0.425-1.811,0.425h-5.729c-0.888,0-1.499-0.141-1.824-0.425   c-0.324-0.285-0.489-0.837-0.489-1.66v-0.247l1.916-0.355v1.042h6.479v-2.024h-5.707c-0.875,0-1.478-0.136-1.812-0.423   c-0.332-0.281-0.5-0.839-0.5-1.656v-0.979c0-0.822,0.167-1.373,0.5-1.654c0.334-0.289,0.937-0.43,1.812-0.43h5.231   c0.845,0,1.442,0.133,1.793,0.394c0.345,0.266,0.519,0.773,0.519,1.52v0.208l-1.852,0.397V167.956z"
       fill="#2B4C83" /><path
       id="path30"
       d="M174.098,167.956h-6.06v1.854h5.726c0.889,0,1.492,0.144,1.815,0.428c0.319,0.285,0.477,0.834,0.477,1.655   v1.206c0,0.823-0.157,1.375-0.477,1.66c-0.323,0.284-0.926,0.425-1.815,0.425h-5.726c-0.892,0-1.5-0.141-1.824-0.425   c-0.325-0.285-0.489-0.837-0.489-1.66v-0.247l1.917-0.355v1.042h6.479v-2.024h-5.707c-0.877,0-1.48-0.136-1.814-0.423   c-0.331-0.281-0.503-0.839-0.503-1.656v-0.979c0-0.822,0.172-1.373,0.503-1.654c0.334-0.289,0.937-0.43,1.814-0.43h5.226   c0.847,0,1.444,0.133,1.793,0.394c0.345,0.266,0.519,0.773,0.519,1.52v0.208l-1.853,0.397V167.956z"
       fill="#2B4C83" /></g><g
     id="g52"><path
       id="path34"
       d="M32.228,181.709h-6.319v1.931h5.971c0.926,0,1.556,0.145,1.89,0.443c0.333,0.297,0.499,0.872,0.499,1.728   v1.261c0,0.852-0.167,1.427-0.499,1.724c-0.333,0.296-0.963,0.449-1.89,0.449h-5.971c-0.926,0-1.559-0.153-1.9-0.449   c-0.34-0.297-0.509-0.872-0.509-1.724v-0.26l1.996-0.372v1.088h6.754v-2.107h-5.95c-0.911,0-1.542-0.15-1.889-0.444   c-0.346-0.297-0.521-0.874-0.521-1.727v-1.021c0-0.853,0.175-1.43,0.521-1.727c0.347-0.296,0.978-0.443,1.889-0.443h5.449   c0.883,0,1.505,0.137,1.867,0.407c0.362,0.28,0.544,0.807,0.544,1.588v0.217l-1.933,0.414V181.709z"
       fill="#1D1719" /><path
       id="path36"
       d="M42.324,182.229c0-0.868,0.165-1.447,0.499-1.738c0.333-0.285,0.965-0.431,1.893-0.431h7.112   c0.929,0,1.559,0.145,1.892,0.431c0.334,0.291,0.5,0.871,0.5,1.738v4.843c0,0.852-0.169,1.427-0.511,1.724   c-0.34,0.296-0.968,0.449-1.881,0.449h-7.112c-0.928,0-1.56-0.153-1.893-0.449c-0.333-0.297-0.499-0.872-0.499-1.724V182.229z    M44.58,187.48h7.383v-5.731H44.58V187.48z"
       fill="#1D1719" /><path
       id="path38"
       d="M62.471,189.245v-9.185h2.259v7.468h7.209v1.717H62.471z"
       fill="#1D1719" /><path
       id="path40"
       d="M81.12,180.06v7.468h6.362v-7.468h2.259v7.012c0,0.852-0.171,1.427-0.512,1.724   c-0.34,0.296-0.973,0.449-1.9,0.449h-6.078c-0.927,0-1.557-0.153-1.89-0.449c-0.333-0.297-0.498-0.872-0.498-1.724v-7.012H81.12z"
       fill="#1D1719" /><path
       id="path42"
       d="M103.7,181.709v7.536h-2.235v-7.536h-4.43v-1.649h11.117v1.649H103.7z"
       fill="#1D1719" /><path
       id="path44"
       d="M115.446,189.245v-9.185h2.236v9.185H115.446z"
       fill="#1D1719" /><path
       id="path46"
       d="M125.953,182.229c0-0.868,0.167-1.447,0.503-1.738c0.332-0.285,0.964-0.431,1.89-0.431h7.112   c0.929,0,1.562,0.145,1.892,0.431c0.334,0.291,0.5,0.871,0.5,1.738v4.843c0,0.852-0.171,1.427-0.508,1.724   c-0.342,0.296-0.97,0.449-1.885,0.449h-7.112c-0.926,0-1.558-0.153-1.89-0.449c-0.336-0.297-0.503-0.872-0.503-1.724V182.229z    M128.212,187.48h7.381v-5.731h-7.381V187.48z"
       fill="#1D1719" /><path
       id="path48"
       d="M146.101,189.245v-9.185h1.541l7.794,6.098v-6.098h2.021v9.185h-1.54l-7.774-6.191v6.191H146.101z"
       fill="#1D1719" /><path
       id="path50"
       d="M174.458,181.709h-6.317v1.931h5.968c0.926,0,1.558,0.145,1.89,0.443c0.331,0.297,0.5,0.872,0.5,1.728   v1.261c0,0.852-0.17,1.427-0.5,1.724c-0.332,0.296-0.964,0.449-1.89,0.449h-5.968c-0.929,0-1.561-0.153-1.899-0.449   c-0.343-0.297-0.514-0.872-0.514-1.724v-0.26l1.998-0.372v1.088h6.753v-2.107h-5.948c-0.913,0-1.543-0.15-1.891-0.444   c-0.348-0.297-0.52-0.874-0.52-1.727v-1.021c0-0.853,0.173-1.43,0.52-1.727c0.348-0.296,0.979-0.443,1.891-0.443h5.449   c0.88,0,1.504,0.137,1.865,0.407c0.364,0.28,0.544,0.807,0.544,1.588v0.217l-1.931,0.414V181.709z"
       fill="#1D1719" /></g><line
     id="line54"
     y2="159.972"
     x2="176.059"
     y1="159.972"
     x1="23.983"
     stroke-miterlimit="10"
     stroke-linecap="round"
     stroke="#1D1719"
     fill="none" /></svg>