<svg xmlns="http://www.w3.org/2000/svg" xml:space="preserve" viewBox="24.87 10.75 151.22 141.97"><path d="m48.059 148.45-1.556-4.088H33.267l-1.556 4.176c-.607 1.628-1.125 2.728-1.554 3.298-.43.571-1.133.856-2.11.856-.83 0-1.562-.304-2.199-.911-.636-.606-.955-1.296-.955-2.065 0-.443.074-.903.222-1.376.148-.474.393-1.133.733-1.977l8.328-21.145.856-2.187c.333-.852.688-1.557 1.066-2.121a4.337 4.337 0 0 1 1.488-1.366c.614-.347 1.373-.522 2.277-.522.918 0 1.684.174 2.298.522.615.348 1.11.795 1.489 1.342.377.549.695 1.139.954 1.768.26.629.59 1.468.989 2.52l8.507 21.011c.667 1.598.999 2.761.999 3.487 0 .755-.315 1.446-.943 2.076-.63.63-1.389.944-2.277.944-.518 0-.962-.093-1.333-.278a2.703 2.703 0 0 1-.932-.756c-.252-.316-.522-.805-.811-1.465a84.058 84.058 0 0 1-.744-1.743zm-13.06-9.039h9.728l-4.908-13.438-4.82 13.438zm24.122 5.129 16.724-20.011h-14.37c-1.007 0-1.766-.222-2.277-.665-.511-.444-.766-1.029-.766-1.755 0-.755.255-1.367.766-1.833.511-.466 1.27-.7 2.277-.7h18.523c2.399 0 3.598 1.117 3.598 3.354 0 1.066-.2 1.917-.599 2.554-.401.636-1.207 1.665-2.422 3.088l-15.636 18.611h17.236c1.022 0 1.784.212 2.287.633.504.423.755 1.011.755 1.766 0 .784-.251 1.405-.755 1.865-.503.459-1.265.689-2.287.689H61.031c-1.437 0-2.518-.321-3.243-.967-.726-.644-1.088-1.506-1.088-2.587 0-.37.059-.71.178-1.021.119-.312.277-.603.477-.877.201-.275.478-.623.833-1.045.355-.421.666-.789.933-1.099zm51.439-19.522h-7.195v23.653c0 1.364-.304 2.373-.911 3.032-.608.66-1.393.989-2.354.989-.978 0-1.774-.331-2.388-.998-.614-.668-.921-1.674-.921-3.022v-23.653h-7.196c-1.125 0-1.962-.248-2.51-.744-.548-.496-.822-1.151-.822-1.966 0-.843.285-1.51.856-1.999.569-.489 1.395-.732 2.476-.732h20.966c1.14 0 1.987.252 2.543.755.555.504.833 1.162.833 1.976 0 .815-.28 1.47-.845 1.966-.563.495-1.405.743-2.532.743zm28.785-.355h-14.859v7.994h13.683c1.007 0 1.758.226 2.253.678.497.452.744 1.048.744 1.789 0 .74-.244 1.343-.732 1.81-.489.467-1.244.698-2.265.698h-13.683v9.263h15.369c1.037 0 1.818.24 2.344.722.526.481.788 1.122.788 1.92 0 .771-.262 1.397-.788 1.876-.526.482-1.308.723-2.344.723h-17.923c-1.436 0-2.469-.319-3.097-.955-.631-.635-.945-1.665-.945-3.087v-24.477c0-.947.141-1.72.421-2.32.283-.6.723-1.037 1.323-1.309.6-.275 1.366-.412 2.298-.412h17.412c1.052 0 1.834.234 2.345.7.51.466.765 1.077.765 1.833 0 .77-.256 1.387-.765 1.854-.511.466-1.293.7-2.344.7zm15.57-1.644v11.416l12.948-13.504c.623-.652 1.15-1.133 1.586-1.443.438-.313 1.019-.467 1.746-.467.947 0 1.712.277 2.298.833.585.555.877 1.233.877 2.032 0 .963-.496 1.919-1.488 2.865l-8.017 7.595 9.238 13.238c.651.919 1.14 1.722 1.466 2.411.326.687.489 1.357.489 2.009 0 .725-.286 1.354-.855 1.887-.571.534-1.345.8-2.321.8-.919 0-1.667-.196-2.243-.589a5.049 5.049 0 0 1-1.466-1.565 82.57 82.57 0 0 1-1.067-1.778l-7.795-11.993-5.397 5.176v6.728c0 1.364-.312 2.373-.932 3.032-.624.66-1.422.989-2.399.989a3.226 3.226 0 0 1-1.623-.444 3.115 3.115 0 0 1-1.198-1.199 3.929 3.929 0 0 1-.379-1.443c-.043-.548-.065-1.341-.065-2.378v-24.208c0-1.332.292-2.332.878-2.998.585-.665 1.381-.999 2.387-.999.992 0 1.794.33 2.409.988.615.659.923 1.662.923 3.009z" fill="#1D1719"/><path d="M39.458 114.666S85.571 10.757 121.597 10.757c0 0 26.365-1.529 43.116 72.298l4.551 31.498h-24.865s-2.177-81.522-25.036-88.683c0 0-8.552-.5-26.35 26.402 0 0-21.073 28.079-7.607 28.042 11.356-.034 34.542-5.501 34.542-5.501s-50.035 13.131-62.876 39.851H39.458z" fill="#2F4E84"/></svg>
