<?xml version="1.0" encoding="utf-8"?>
<svg width="34.33203px" height="11.034424px" viewBox="0 0 34.33203 11.034424" version="1.1" xmlns:xlink="http://www.w3.org/1999/xlink" xmlns="http://www.w3.org/2000/svg">
<defs>
    <linearGradient gradientUnits="userSpaceOnUse" x1="17.165949" y1="-15" x2="17.165949" y2="15.000303" id="gradient_1">
      <stop offset="0%" stop-color="#35C1F1" />
      <stop offset="100%" stop-color="#0D62AB" />
    </linearGradient>
  </defs>
  <path d="M25.2586 11.0345L25.2586 0L30.0431 0C31.3039 0 32.262 0.249641 32.9176 0.748922C33.5731 1.24821 33.9009 1.9181 33.9009 2.75862C33.9009 3.36566 33.7051 3.88829 33.3136 4.32651C32.9221 4.76473 32.4066 5.0467 31.7672 5.17241L31.7672 5.28017C32.2414 5.29813 32.6724 5.41756 33.0603 5.63847C33.4483 5.85938 33.7572 6.1629 33.9871 6.54903C34.217 6.93517 34.3319 7.38865 34.3319 7.90948C34.3319 8.51293 34.1748 9.04993 33.8605 9.52047C33.5462 9.99102 33.0999 10.361 32.5216 10.6304C31.9433 10.8998 31.2536 11.0345 30.4526 11.0345L25.2586 11.0345ZM28.2542 8.64202L29.6551 8.64202C30.6609 8.64202 31.1637 8.26845 31.1637 7.52133C31.1637 7.1334 31.0335 6.83526 30.7731 6.62693C30.5127 6.4186 30.1544 6.31443 29.6982 6.31443L28.2542 6.31443L28.2542 8.64202ZM28.2542 4.46177L29.4827 4.46177C29.8778 4.46177 30.1993 4.37017 30.4471 4.18699C30.695 4.00379 30.8189 3.74338 30.8189 3.40573C30.8189 3.0645 30.6968 2.80318 30.4525 2.62179C30.2083 2.4404 29.8994 2.3497 29.5258 2.3497L28.2542 2.3497L28.2542 4.46177ZM18.3835 11.0345L14.1379 11.0345L14.1379 0L18.3404 0C19.4755 0 20.457 0.220007 21.2849 0.660023C22.1129 1.10004 22.7522 1.73222 23.203 2.55657C23.6538 3.38093 23.8792 4.36782 23.8792 5.51724C23.8792 6.66667 23.6547 7.65356 23.2057 8.47791C22.7567 9.30226 22.121 9.93445 21.2984 10.3745C20.4758 10.8145 19.5042 11.0345 18.3835 11.0345L18.3835 11.0345ZM17.1336 8.49183L18.2759 8.49183C18.8218 8.49183 19.2879 8.40382 19.674 8.22782C20.0602 8.05181 20.3547 7.74829 20.5577 7.31726C20.7606 6.88622 20.8621 6.28637 20.8621 5.51769C20.8621 4.74901 20.7588 4.14915 20.5523 3.71812C20.3457 3.28709 20.044 2.98357 19.6471 2.80756C19.2502 2.63156 18.7644 2.54355 18.1897 2.54355L17.1336 2.54355L17.1336 8.49183ZM0 0L3.72845 0L6.2931 6.25L6.42241 6.25L8.98706 0L12.7155 0L12.7155 11.0345L9.78448 11.0345L9.78448 4.65517L9.69827 4.65517L7.24137 10.9483L5.47413 10.9483L3.01724 4.61207L2.93103 4.61207L2.93103 11.0345L0 11.0345L0 0Z" id="MDB" fill="url(#gradient_1)" stroke="none" />
</svg>
