<svg xmlns="http://www.w3.org/2000/svg" data-name="Layer 1" fill="#ffffff" viewBox="0 0 95 118.75" x="0px" y="0px"><defs><style>.cls-1{fill-rule:evenodd;}</style></defs><title>a</title><path class="cls-1" d="M80.236,47.5A32.732,32.732,0,1,0,47.5,80.23,32.769,32.769,0,0,0,80.236,47.5Zm4.213,0A36.95,36.95,0,1,1,47.5,10.55,36.992,36.992,0,0,1,84.449,47.5Zm3.832,0A40.781,40.781,0,1,1,47.5,6.719,40.826,40.826,0,0,1,88.281,47.5Zm4.221,0a45,45,0,1,1-45-45,45.049,45.049,0,0,1,45,45ZM70.045,32.752a2.1,2.1,0,0,1,0,2.982L43.532,62.248a2.1,2.1,0,0,1-1.493.618,2.073,2.073,0,0,1-1.484-.618l-15.6-15.595a2.11,2.11,0,0,1,2.985-2.984l14.1,14.106L67.067,32.752A2.1,2.1,0,0,1,70.045,32.752Z"/></svg>
