<svg xmlns="http://www.w3.org/2000/svg" xmlns:xlink="http://www.w3.org/1999/xlink" viewBox="0,0,256,256" width="48px" height="48px" fill-rule="nonzero"><defs><linearGradient x1="19.423" y1="0.534" x2="28.475" y2="46.945" gradientUnits="userSpaceOnUse" id="color-1"><stop offset="0" stop-color="#889097"></stop><stop offset="0.331" stop-color="#848c94"></stop><stop offset="0.669" stop-color="#78828b"></stop><stop offset="1" stop-color="#64717c"></stop></linearGradient><radialGradient cx="12.759" cy="1.002" r="58.536" gradientUnits="userSpaceOnUse" id="color-2"><stop offset="0" stop-color="#bd8af5"></stop><stop offset="0.137" stop-color="#b88bf5"></stop><stop offset="0.309" stop-color="#a88ff3"></stop><stop offset="0.499" stop-color="#8f96f2"></stop><stop offset="0.702" stop-color="#6b9eef"></stop><stop offset="0.913" stop-color="#3eaaec"></stop><stop offset="1" stop-color="#29afea"></stop></radialGradient><linearGradient x1="24" y1="6.021" x2="24" y2="4.076" gradientUnits="userSpaceOnUse" id="color-3"><stop offset="0" stop-color="#6d7479"></stop><stop offset="1" stop-color="#323538"></stop></linearGradient><linearGradient x1="2.9375" y1="2.9375" x2="17.0625" y2="17.0625" gradientUnits="userSpaceOnUse" id="color-4"><stop offset="0" stop-color="#33bef0"></stop><stop offset="1" stop-color="#0a85d9"></stop></linearGradient></defs><g fill="none" fill-rule="nonzero" stroke="none" stroke-width="1" stroke-linecap="butt" stroke-linejoin="miter" stroke-miterlimit="10" stroke-dasharray="" stroke-dashoffset="0" font-family="none" font-weight="none" font-size="none" text-anchor="none" style="mix-blend-mode: normal"><g transform="scale(5.33333,5.33333)"><path d="M12,44v-40c0,-1.657 1.343,-3 3,-3h18c1.657,0 3,1.343 3,3v40c0,1.657 -1.343,3 -3,3h-18c-1.657,0 -3,-1.343 -3,-3z" fill="url(#color-1)"></path><path d="M13,44v-40c0,-1.105 0.895,-2 2,-2h18c1.105,0 2,0.895 2,2v40c0,1.105 -0.895,2 -2,2h-18c-1.105,0 -2,-0.895 -2,-2z" fill="url(#color-2)"></path><path d="M27,4c-0.186,0 -5.814,0 -6,0c-0.552,0 -1,0.448 -1,1c0,0.552 0.448,1 1,1c0.186,0 5.814,0 6,0c0.552,0 1,-0.448 1,-1c0,-0.552 -0.448,-1 -1,-1z" fill="url(#color-3)"></path></g></g><g fill="none" fill-rule="nonzero" stroke="none" stroke-width="1" stroke-linecap="butt" stroke-linejoin="miter" stroke-miterlimit="10" stroke-dasharray="" stroke-dashoffset="0" font-family="none" font-weight="none" font-size="none" text-anchor="none" style="mix-blend-mode: normal"><g transform="translate(148.66667,147.66667) scale(5.33333,5.33333)" id="overlay"><g id="Layer_2" fill="#000000" font-family="Inter, apple-system, BlinkMacSystemFont, &quot;Helvetica Neue&quot;, &quot;Segoe UI&quot;, &quot;Fira Sans&quot;, Roboto, Oxygen, Ubuntu, &quot;Droid Sans&quot;, Arial, sans-serif" font-weight="400" font-size="16" text-anchor="start"></g><g id="Layer_3" fill="#000000" font-family="Inter, apple-system, BlinkMacSystemFont, &quot;Helvetica Neue&quot;, &quot;Segoe UI&quot;, &quot;Fira Sans&quot;, Roboto, Oxygen, Ubuntu, &quot;Droid Sans&quot;, Arial, sans-serif" font-weight="400" font-size="16" text-anchor="start"></g><g id="Layer_1"><path d="M10,0c-5.5,0 -10,4.5 -10,10c0,5.5 4.5,10 10,10c5.5,0 10,-4.5 10,-10c0,-5.5 -4.5,-10 -10,-10z" fill="url(#color-4)"></path><g fill="#ffe357" opacity="0.1" visibility="hidden"><path d="M13.197,15.178c0,0.188 -0.108,0.36 -0.277,0.442c-0.596,0.289 -1.337,0.433 -2.223,0.433c-1.217,0 -2.211,-0.337 -2.978,-1.011c-0.769,-0.673 -1.278,-1.636 -1.526,-2.885h-0.502c-0.269,0 -0.488,-0.218 -0.488,-0.488v-0.568c0,-0.269 0.218,-0.488 0.488,-0.488h0.291c-0.011,-0.135 -0.016,-0.294 -0.016,-0.478c0,-0.097 0.011,-0.319 0.032,-0.666h-0.307c-0.269,0 -0.488,-0.218 -0.488,-0.488v-0.541c0,-0.269 0.218,-0.488 0.488,-0.488h0.543c0.298,-1.249 0.86,-2.221 1.688,-2.913c0.828,-0.692 1.859,-1.039 3.092,-1.039c0.747,0 1.373,0.102 1.88,0.305c0.184,0.074 0.303,0.255 0.303,0.453v0.933c0,0.353 -0.364,0.591 -0.685,0.444c-0.41,-0.188 -0.851,-0.286 -1.324,-0.293c-0.526,-0.008 -1.041,0.138 -1.465,0.45c-0.536,0.396 -0.908,0.95 -1.12,1.66h2.97c0.269,0 0.488,0.218 0.488,0.488v0.543c0,0.269 -0.218,0.488 -0.488,0.488h-3.213c-0.021,0.319 -0.032,0.541 -0.032,0.666c0,0.146 0.006,0.306 0.016,0.478h3.23c0.269,0 0.488,0.218 0.488,0.488v0.568c0,0.269 -0.218,0.488 -0.488,0.488h-2.987c0.406,1.364 1.215,2.045 2.427,2.045c0.509,0 1.002,-0.109 1.479,-0.325c0.329,-0.15 0.704,0.076 0.704,0.437z"></path></g><g fill="#ffffff"><g><path d="M12.919,14.912c0,0.191 -0.108,0.365 -0.279,0.451c-0.537,0.269 -1.2,0.403 -1.99,0.403c-1.104,0 -2.005,-0.324 -2.702,-0.973c-0.697,-0.649 -1.158,-1.573 -1.385,-2.776h-0.397c-0.276,0 -0.5,-0.224 -0.5,-0.5v-0.484c0,-0.276 0.224,-0.5 0.5,-0.5h0.206c-0.01,-0.13 -0.015,-0.283 -0.015,-0.461c0,-0.094 0.01,-0.307 0.03,-0.641h-0.221c-0.276,0 -0.5,-0.224 -0.5,-0.5v-0.461c0,-0.276 0.224,-0.5 0.5,-0.5h0.435c0.271,-1.203 0.78,-2.138 1.532,-2.805c0.751,-0.666 1.686,-1 2.804,-1c0.665,0 1.225,0.094 1.681,0.283c0.185,0.076 0.301,0.261 0.301,0.46v1.225c0,0.194 -0.212,0.323 -0.378,0.222c-0.453,-0.277 -0.951,-0.416 -1.493,-0.416c-0.54,0 -1.015,0.186 -1.425,0.555c-0.409,0.37 -0.7,0.862 -0.872,1.477h2.637c0.276,0 0.5,0.224 0.5,0.5v0.461c0,0.276 -0.224,0.5 -0.5,0.5h-2.858c-0.02,0.308 -0.029,0.521 -0.029,0.641c0,0.141 0.004,0.295 0.015,0.461h2.872c0.276,0 0.5,0.224 0.5,0.5v0.484c0,0.276 -0.224,0.5 -0.5,0.5h-2.652c0.368,1.312 1.102,1.969 2.2,1.969c0.555,0 1.089,-0.15 1.602,-0.451c0.169,-0.099 0.38,0.017 0.38,0.212v1.164z"></path></g></g></g></g></g></svg>