<?xml version="1.0" encoding="utf-8"?>
<svg width="83.603516px" height="23.499268px" viewBox="0 0 83.603516 23.499268" version="1.1" xmlns:xlink="http://www.w3.org/1999/xlink" xmlns="http://www.w3.org/2000/svg">
  <g id="payzily-original-4">
    <path d="M61.4814 0C63.2682 -0.00463866 64.7217 1.43764 64.7309 3.22445L64.7309 5.13279C65.3153 4.65756 66.0469 4.40047 66.8002 4.40557C67.5443 4.39525 68.2676 4.6506 68.8403 5.12572C69.304 5.52615 69.658 6.03814 69.869 6.61334L71.1538 9.7783L72.3499 6.61125C72.9125 5.21003 74.0228 4.40557 75.3958 4.40557C76.2294 4.40255 77.0309 4.72656 77.6283 5.30802C78.2396 5.8991 78.5834 6.714 78.5802 7.56426C78.5727 7.99114 78.5006 8.4143 78.3664 8.81948L78.346 8.87886L74.0824 19.0823C73.4516 20.5902 72.7619 21.6204 71.9117 22.3252C70.9593 23.1143 69.8124 23.4982 68.4055 23.4982C67.5481 23.5136 66.696 23.3617 65.8968 23.0511C64.6517 22.6393 63.8114 21.475 63.8127 20.1637C63.8051 19.3672 64.1168 18.601 64.6782 18.0362C65.2397 17.4713 66.004 17.1548 66.8004 17.1576C67.0664 17.1568 67.3313 17.1894 67.5892 17.2545L64.7309 10.8942L64.7309 16.8111C64.7353 17.6792 64.3858 18.5116 63.7628 19.1163C63.1519 19.71 62.3324 20.0403 61.4804 20.0359L61.4676 20.0359C59.9944 20.0309 58.7111 19.0301 58.3474 17.6024C58.2038 18.1783 57.9019 18.7025 57.4757 19.1156C56.8649 19.7094 56.0453 20.0396 55.1934 20.0352L55.1806 20.0352C54.0988 20.033 53.0902 19.4882 52.4954 18.5846C51.935 19.4226 50.9928 19.9254 49.9845 19.9242L42.1162 19.9242C40.3171 19.9242 38.9078 18.614 38.9078 16.9413L38.9078 16.8974C38.9123 15.9316 39.3069 15.0087 40.0019 14.3382L43.3623 10.5235L42.1162 10.5235C41.4624 10.5245 40.8261 10.3124 40.3035 9.91954L36.4696 19.0823C35.84 20.589 35.1505 21.6195 34.2996 22.3244C33.3472 23.1136 32.2003 23.4975 30.7938 23.4975L30.7843 23.4975C29.9308 23.5127 29.0825 23.3611 28.287 23.0514C27.0422 22.6399 26.2019 21.4762 26.2029 20.1651C26.2027 19.9436 26.226 19.7227 26.2725 19.506C25.7425 19.8538 25.1219 20.0379 24.488 20.0352C23.807 20.0396 23.1411 19.8355 22.5796 19.4503C21.5942 19.9348 20.5085 20.1805 19.4104 20.1675C15.9209 20.1675 13.3882 17.8623 13.3882 14.686L13.3882 14.643C13.385 14.0404 13.4755 13.4408 13.6565 12.8659C13.5119 13.0025 13.3604 13.1333 13.2017 13.2582C11.7589 14.3952 9.84702 14.9962 7.67223 14.9962L6.52537 14.9962L6.52537 16.7892C6.52537 18.5906 5.06495 20.0511 3.26343 20.0511C1.46191 20.0511 0.00149307 18.5906 0.00149307 16.7892L5.79834e-05 4.0354C-0.00501556 3.16612 0.338376 2.33104 0.953493 1.71665C1.56861 1.10238 2.40418 0.76016 3.27349 0.766307L7.9791 0.766307C10.2116 0.766307 12.1285 1.4185 13.5212 2.65215C14.429 3.4594 15.0915 4.50576 15.4328 5.67169C15.6785 5.46968 15.9544 5.30767 16.2505 5.1917L16.27 5.18428C17.6772 4.63982 19.1749 4.36741 20.6837 4.38156C23.4657 4.38156 25.0437 5.38386 25.8809 6.23216C25.9737 6.32319 26.063 6.41712 26.1488 6.51384C26.6092 5.23403 27.8309 4.38724 29.1909 4.40534C29.9351 4.39501 30.6586 4.65026 31.2315 5.12537C31.6947 5.52569 32.0487 6.0371 32.2601 6.61171L33.5453 9.7776L34.7406 6.61125C35.3032 5.21003 36.414 4.40534 37.7877 4.40534C38.6387 4.40406 39.4548 4.74291 40.0546 5.34652C40.6129 4.8227 41.3506 4.53267 42.1162 4.53615L49.7684 4.53615C50.8389 4.51458 51.85 5.02703 52.4654 5.90328C52.5198 5.81746 52.5783 5.73396 52.6409 5.6529C52.0734 5.06692 51.7593 4.28125 51.7665 3.46554L51.7665 3.33496C51.7665 1.5093 53.2401 0.132202 55.1943 0.132202C56.7157 0.132202 57.946 0.96774 58.4153 2.20012C58.8554 0.881925 60.0916 -0.00521849 61.4814 0L61.4814 0ZM58.2511 6.53775L58.2511 4.96362C58.1172 5.21249 57.95 5.44187 57.754 5.64551C57.9664 5.91466 58.1342 6.21629 58.2511 6.53868L58.2511 6.53775ZM7.75845 8.74301C8.18118 8.77107 8.60136 8.65882 8.95379 8.42375C9.10388 8.29886 9.18402 8.10879 9.16872 7.91408L9.16872 7.87013C9.16872 7.46494 9.04071 7.36312 8.98657 7.3194C8.76735 7.14453 8.30779 7.04004 7.75845 7.04004L6.52345 7.04004L6.52345 8.74266L7.75845 8.74301ZM51.9647 14.6715L51.9647 10.0281C51.9418 10.0544 51.9189 10.08 51.8961 10.1051L48.5084 13.9361L49.9861 13.9361C50.7131 13.9335 51.4163 14.1951 51.9647 14.6724L51.9647 14.6715ZM29.9788 17.2552L27.6947 12.1682L27.6947 16.8536C27.6949 17.1063 27.6651 17.3596 27.606 17.6067C28.0812 17.3113 28.6299 17.1554 29.1894 17.1569C29.4555 17.156 29.7207 17.1886 29.9786 17.2538L29.9788 17.2552Z" id="Tracé_5959_-_Contour" fill="#FFFFFF" fill-rule="evenodd" stroke="none" />
    <path d="M1.91029 4.03647C1.90522 3.67361 2.04745 3.3242 2.30448 3.06803C2.56152 2.81186 2.9114 2.67073 3.27426 2.67699L7.97841 2.67699C11.5832 2.67699 13.8261 4.7158 13.8261 7.80561L13.8261 7.84817C13.8261 11.2895 11.0569 13.0861 7.67108 13.0861L4.61517 13.0861L4.61517 16.7898C4.61517 17.5365 4.00982 18.1418 3.26309 18.1418C2.51635 18.1418 1.911 17.5365 1.911 16.7898L1.911 4.036L1.91029 4.03647ZM7.75853 10.6528C9.80388 10.6528 11.0785 9.5127 11.0785 7.91411L11.0785 7.87131C11.0785 6.07418 9.78179 5.13184 7.75853 5.13184L4.61427 5.13184L4.61427 10.6528L7.75853 10.6528ZM15.2969 14.6851L15.2969 14.6422C15.2969 12.1433 17.2534 10.9164 20.0904 10.9164C21.1506 10.906 22.2053 11.0693 23.2128 11.3996L23.2128 11.1147C23.2128 9.47141 22.201 8.59482 20.3319 8.59482C19.4531 8.58357 18.5802 8.73943 17.7595 9.05405C17.624 9.09603 17.4832 9.11818 17.3413 9.11992C17.048 9.12397 16.7651 9.01125 16.5549 8.80681C16.3447 8.60224 16.2243 8.32253 16.2203 8.02925L16.2203 8.02357C16.2301 7.55935 16.5154 7.14559 16.9459 6.9714C18.1369 6.50754 19.406 6.27688 20.6841 6.29196C22.4209 6.29196 23.7186 6.75223 24.5316 7.58545C25.388 8.41901 25.7844 9.64594 25.7844 11.1577L25.7844 16.8552C25.7859 17.1973 25.6489 17.5254 25.4047 17.7648C25.1604 18.0042 24.8296 18.1345 24.4876 18.1261C23.7182 18.1261 23.1909 17.6001 23.1909 17.0098L23.1909 16.571C22.3993 17.5124 21.1904 18.2571 19.4097 18.2571C17.2316 18.2571 15.2971 17.0087 15.2971 14.6842L15.2969 14.6851ZM23.2563 13.8538L23.2563 13.0654C22.4122 12.7529 21.5182 12.597 20.6182 12.6051C18.9032 12.6051 17.8921 13.3289 17.8921 14.5341L17.8921 14.578C17.8921 15.6962 18.8813 16.3312 20.1562 16.3312C21.9149 16.33 23.2565 15.3216 23.2565 13.8538L23.2563 13.8538ZM28.9484 21.26C28.4538 21.1273 28.1107 20.678 28.1128 20.1659C28.1054 19.8763 28.2159 19.5961 28.419 19.3895C28.622 19.1828 28.9002 19.0674 29.1899 19.0699C29.3552 19.0701 29.5191 19.0998 29.6739 19.1576C29.9718 19.2568 30.2834 19.3086 30.5973 19.3113C31.3889 19.3113 31.8072 18.982 32.2475 18.0844L32.3354 17.8429L28.0259 8.24484C27.9355 8.04422 27.8834 7.82852 27.8723 7.60877C27.8672 7.25971 28.0054 6.92387 28.2546 6.67941C28.5039 6.43507 28.8424 6.30345 29.1913 6.31539C29.873 6.31539 30.2465 6.70887 30.4881 7.32279L33.6105 15.0152L36.5135 7.32279C36.7331 6.77659 37.1072 6.31539 37.7883 6.31539C38.1237 6.30994 38.4473 6.4389 38.6869 6.6735C38.9266 6.90821 39.0624 7.22898 39.064 7.56435C39.0565 7.78005 39.0196 7.99378 38.9542 8.1995L34.7089 18.3454C33.7197 20.7126 32.6645 21.5883 30.7949 21.5883C30.1638 21.6043 29.5359 21.4926 28.9491 21.2598L28.9484 21.26ZM40.8175 16.9436L40.8175 16.8996C40.8175 16.3963 40.9951 16.0672 41.4112 15.6288L47.5884 8.61615L42.1161 8.61615C41.517 8.61615 41.0313 8.13048 41.0313 7.53128C41.0313 6.9322 41.517 6.44653 42.1161 6.44653L49.7684 6.44653C50.4939 6.44653 51.0421 6.88477 51.0421 7.4987L51.0421 7.56352C51.0421 8.06775 50.8663 8.39593 50.4721 8.8344L44.2705 15.8479L49.9864 15.8479C50.5852 15.8479 51.0707 16.3335 51.0707 16.9322C51.0707 17.5311 50.5852 18.0166 49.9864 18.0166L42.1161 18.0166C41.3675 18.0166 40.8175 17.5573 40.8175 16.9434L40.8175 16.9436ZM53.6764 3.33463C53.6764 2.54595 54.3361 2.04126 55.1947 2.04126C56.0533 2.04126 56.7111 2.54548 56.7111 3.33463L56.7111 3.46556C56.7111 4.25425 56.0514 4.78039 55.1947 4.78039C54.3381 4.78039 53.6764 4.25402 53.6764 3.46556L53.6764 3.33463ZM53.8741 7.65186C53.8678 7.2984 54.0044 6.95734 54.2529 6.70593C54.5015 6.45451 54.8409 6.31396 55.1944 6.31616C55.55 6.31326 55.8919 6.45289 56.1438 6.70395C56.3957 6.95491 56.5366 7.29631 56.5351 7.65186L56.5351 16.8124C56.5403 17.5474 55.9488 18.1474 55.2139 18.1526C54.4789 18.1578 53.8789 17.5663 53.8736 16.8314L53.8736 7.65233L53.8741 7.65186ZM60.1615 3.22487C60.1596 2.87465 60.2984 2.53835 60.5466 2.29122C60.7948 2.0441 61.1318 1.90691 61.482 1.91027C61.8343 1.90645 62.1737 2.04282 62.4252 2.28948C62.6767 2.53614 62.8197 2.87279 62.8227 3.2251L62.8227 16.8122C62.8279 17.5472 62.2364 18.1472 61.5015 18.1524C60.7665 18.1576 60.1665 17.5661 60.1613 16.8312L60.1613 3.22533L60.1615 3.22487ZM66.5583 21.2594C66.0639 21.1264 65.721 20.6773 65.7228 20.1653C65.7154 19.8755 65.826 19.5952 66.0293 19.3885C66.2325 19.1819 66.511 19.0666 66.8008 19.0693C66.9659 19.0694 67.1296 19.0992 67.2841 19.1571C67.582 19.2562 67.8936 19.3081 68.2075 19.3107C69.0001 19.3107 69.4188 18.9814 69.8584 18.0838L69.9463 17.8424L65.6354 8.24496C65.5458 8.04411 65.494 7.82852 65.4827 7.60888C65.4775 7.25982 65.6156 6.92387 65.8649 6.67941C66.1142 6.43495 66.4529 6.30345 66.8018 6.31551C67.4827 6.31551 67.857 6.70898 68.0975 7.32303L71.22 15.0153L74.1236 7.32303C74.3433 6.77671 74.7174 6.31551 75.3974 6.31551C75.7327 6.31006 76.0563 6.43901 76.296 6.67361C76.5356 6.90833 76.6714 7.22909 76.673 7.56447C76.666 7.78028 76.6291 7.99401 76.5632 8.19962L72.321 18.3453C71.3309 20.7125 70.2766 21.5882 68.4061 21.5882C67.7742 21.6037 67.1456 21.4919 66.5579 21.2594L66.5583 21.2594Z" id="Tracé_5960" fill="#3351A3" fill-rule="evenodd" stroke="none" />
    <path d="M77.6551 22.3485C77.4871 22.2695 77.3168 22.1956 77.1442 22.1269L75.1447 21.3278L75.3584 20.7891L76.3486 21.1853L76.3505 21.1777C76.2361 20.989 76.2229 20.7557 76.3151 20.5552C76.4813 20.1408 76.9473 19.9736 77.4772 20.1895C78.1015 20.4386 78.2545 20.9609 78.0959 21.3573C78.0219 21.5734 77.8348 21.731 77.6092 21.7672L77.6054 21.7747L77.836 21.8935L77.6536 22.349L77.6551 22.3485ZM77.1401 21.5005C77.1719 21.5139 77.2053 21.5232 77.2394 21.528C77.4008 21.5536 77.5587 21.4652 77.6213 21.3142C77.713 21.0851 77.5916 20.8723 77.2805 20.7481C77.0116 20.6412 76.7506 20.6754 76.6502 20.9267C76.5935 21.0829 76.6511 21.2575 76.7896 21.3494C76.8191 21.3702 76.851 21.3874 76.8846 21.4007L77.1397 21.503L77.1401 21.5005ZM76.9239 19.1485L77.8789 19.2296C77.9924 19.2425 78.1349 19.2571 78.2351 19.2727L78.2389 19.2612C78.1567 19.2011 78.0375 19.1204 77.9477 19.0551L77.1811 18.5031L77.4117 17.9246L78.3923 18.785C78.9794 19.3092 79.1906 19.5852 79.286 19.8488C79.3559 20.0473 79.3662 20.262 79.3157 20.4663L78.8125 20.3986C78.8305 20.3092 78.8311 20.2171 78.8144 20.1273C78.7983 20.0151 78.7546 19.9084 78.6873 19.817C78.6718 19.7906 78.6485 19.7696 78.6206 19.7569C78.5888 19.7455 78.5548 19.7419 78.5213 19.7464L76.6842 19.7464L76.9239 19.1487L76.9239 19.1485ZM79.1395 16.8546L79.6838 17.27L79.4623 17.8296L77.3644 16.1453L77.648 15.4358L80.3341 15.6495L80.1011 16.23L79.4145 16.17L79.1393 16.8542L79.1395 16.8546ZM78.9771 16.0868L78.4119 16.0324C78.2532 16.0172 78.0575 15.9894 77.901 15.9683L77.8991 15.9758C78.028 16.0685 78.1936 16.1754 78.3173 16.2704L78.7672 16.6157L78.9771 16.0877L78.9771 16.0868ZM80.1172 15.3438L78.9352 13.5513L78.92 13.5457L78.5093 14.577L78.0612 14.3984L78.7535 12.6646L79.0649 12.7897L80.2388 14.5501L80.2517 14.5557L80.7053 13.4244L81.1513 13.6036L80.4093 15.4606L80.1172 15.3438ZM79.5345 12.0276L79.2785 12.6689L78.8239 12.4865L79.5601 10.6501L80.0135 10.8306L79.7546 11.4828L81.6886 12.2573L81.472 12.7997L79.5357 12.0271L79.5345 12.0276ZM81.6222 9.4914L81.27 10.3701L81.8372 10.5964L82.2307 9.61584L82.6727 9.7935L82.0644 11.3175L79.675 10.3618L80.2642 8.88745L80.7062 9.06511L80.3345 9.99725L80.8311 10.1958L81.1814 9.31711L81.6215 9.49187L81.6222 9.4914ZM80.4328 8.4694L80.6465 7.93363L81.7036 8.35633L81.7075 8.34497C81.6362 8.25544 81.5728 8.16348 81.5098 8.07616L80.9334 7.218L81.198 6.55444L81.8989 7.75191L83.6034 7.46698L83.3512 8.09865L82.0851 8.27133L82.2551 8.57771L83.0343 8.89001L82.8206 9.42577L80.4335 8.47009L80.4328 8.4694Z" id="Groupe_9406" fill="#FFFFFF" fill-rule="evenodd" stroke="none" />
  </g>
</svg>