<svg xmlns="http://www.w3.org/2000/svg" xmlns:xlink="http://www.w3.org/1999/xlink" width="108" height="108" viewBox="0 0 108 108"><defs><linearGradient id="a" x1="0.08" y1="0.046" x2="0.727" y2="0.862" gradientUnits="objectBoundingBox"><stop offset="0" stop-color="#205c97"/><stop offset="1" stop-color="#093b6e"/></linearGradient><clipPath id="c"><rect width="108" height="108"/></clipPath></defs><g id="b" clip-path="url(#c)"><rect width="108" height="108" fill="#fff"/><rect width="108" height="108" fill="url(#a)"/><g transform="translate(21.512 17.135)"><g transform="translate(0 0)"><g transform="translate(5.558 6.949)" opacity="0.2" style="isolation:isolate"><path d="M-218.58,526.657l25.024-3.367h0l7.02,37.658h0l-26.594,3.579h0L-219.9,528.2A1.4,1.4,0,0,1-218.58,526.657Z" transform="translate(219.921 -523.29)" fill="#fff"/></g><path d="M-173.853,580.734l-9.861-62.263a1.728,1.728,0,0,0-.7-1.135,1.728,1.728,0,0,0-1.3-.311l-39.719,6.291a1.741,1.741,0,0,0-1.446,1.989l9.862,62.263a1.729,1.729,0,0,0,.7,1.138,1.714,1.714,0,0,0,1.289.308l2.04-.323.238,1.5a.645.645,0,0,0,.261.426.645.645,0,0,0,.486.116.654.654,0,0,0,.549-.686l-.012-.044v-.083l-.233-1.435.086-.014,32.978-5.223.238,1.5a.652.652,0,0,0,.261.427.657.657,0,0,0,.486.115.643.643,0,0,0,.425-.259.65.65,0,0,0,.117-.486l-.238-1.5,2.04-.323A1.741,1.741,0,0,0-173.853,580.734Zm-1.306.647-40.493,6.413-.013-.085-9.984-63.036.086-.013,40.492-6.414.013.086,9.984,63.035Z" transform="translate(226.891 -517.004)" fill="#fff"/><path d="M-219.229,531.655l5.717,36.094a1.707,1.707,0,0,0,.686,1.119,1.723,1.723,0,0,0,1.277.307l24.416-3.867a1.718,1.718,0,0,0,1.426-1.963l-5.717-36.094a1.707,1.707,0,0,0-.686-1.119,1.7,1.7,0,0,0-1-.328,1.8,1.8,0,0,0-.273.021l-24.416,3.867A1.718,1.718,0,0,0-219.229,531.655Zm2.206,5.739,7.758-1.229.809,5.1-7.758,1.229Zm2.017,12.74,12.006-1.9.809,5.106-12.005,1.9Zm28.1,13.84-25.276,4-.809-5.105,25.276-4Zm-1.009-6.37-25.275,4-.809-5.1,25.275-4Zm-1.008-6.368-12.005,1.9-.809-5.106,12.006-1.9Zm-1.009-6.371-25.276,4-.809-5.105,25.275-4Zm-1.818-11.474.809,5.1-16.252,2.574-.809-5.1Zm-1.009-6.369.809,5.1-7.757,1.229-.809-5.105Zm-8.215,6.534-16.251,2.574-.809-5.105,16.251-2.574Z" transform="translate(224.563 -519.685)" fill="#fff"/><path d="M-204.748,593.265a1.728,1.728,0,0,0-.311,1.295l1.019,6.437a1.728,1.728,0,0,0,.7,1.135,1.735,1.735,0,0,0,1.294.311l18.251-2.891a1.73,1.73,0,0,0,1.135-.7,1.731,1.731,0,0,0,.311-1.295l-1.019-6.437a1.729,1.729,0,0,0-.7-1.135,1.727,1.727,0,0,0-1.295-.311l-18.25,2.891A1.729,1.729,0,0,0-204.748,593.265Zm20.018-2.365,1.156,7.3-19.109,3.026-1.156-7.3Z" transform="translate(220.246 -539.139)" fill="#fff"/><path d="M-166.378,594.352a.65.65,0,0,0-.116.485.655.655,0,0,0,.746.542l2.594-.41a.654.654,0,0,0,.542-.747.657.657,0,0,0-.644-.55.632.632,0,0,0-.1.008l-2.595.41A.652.652,0,0,0-166.378,594.352Z" transform="translate(208.492 -540.363)" fill="#fff"/><path d="M-173.108,536.893a.65.65,0,0,0-.116.486.651.651,0,0,0,.262.428.647.647,0,0,0,.483.114l2.147-.34a.654.654,0,0,0,.542-.747.658.658,0,0,0-.645-.55.625.625,0,0,0-.1.008l-2.146.34A.648.648,0,0,0-173.108,536.893Z" transform="translate(210.542 -522.878)" fill="#fff"/><g transform="translate(32.155 15.911)"><circle cx="16.408" cy="16.408" r="16.408" fill="#4e78a2"/><circle cx="15.713" cy="15.713" r="15.713" transform="translate(0.695 0.695)" fill="none" stroke="#fff" stroke-width="1.4"/></g><g transform="translate(38.063 24.6)"><path d="M-170.1,559.829a1.124,1.124,0,0,1-1.562.3,1.124,1.124,0,0,1-.3-1.562,13.984,13.984,0,0,1,9.374-6.017,13.981,13.981,0,0,1,10.774,2.825,1.123,1.123,0,0,1,.179,1.58,1.124,1.124,0,0,1-1.555.2,11.623,11.623,0,0,0-16.329,1.877q-.309.389-.583.8Z" transform="translate(172.149 -552.383)" fill="#fff" stroke="#4e78a2" stroke-width="0.6"/><path d="M-165.219,564.373a1.124,1.124,0,0,1-1.562.3,1.125,1.125,0,0,1-.3-1.562h0a9.867,9.867,0,0,1,13.68-2.752q.341.226.661.48a1.125,1.125,0,0,1,.223,1.575,1.124,1.124,0,0,1-1.574.223l-.025-.019a7.629,7.629,0,0,0-10.72,1.228Q-165.038,564.1-165.219,564.373Z" transform="translate(170.664 -554.309)" fill="#fff" stroke="#4e78a2" stroke-width="0.6"/><path d="M-160.346,568.92a1.123,1.123,0,0,1-1.557.318,1.124,1.124,0,0,1-.318-1.557l.017-.026a5.874,5.874,0,0,1,8.144-1.634c.133.089.264.184.389.283a1.124,1.124,0,0,1,.223,1.574,1.124,1.124,0,0,1-1.574.223l-.025-.019a3.637,3.637,0,0,0-5.111.582q-.1.124-.187.257Z" transform="translate(169.181 -556.238)" fill="#fff" stroke="#4e78a2" stroke-width="0.6"/><path d="M-156.767,572.1a1.351,1.351,0,0,1,1.887-.3,1.351,1.351,0,0,1,.3,1.887,1.351,1.351,0,0,1-1.887.3A1.352,1.352,0,0,1-156.767,572.1Z" transform="translate(167.541 -558.221)" fill="#fff" stroke="#4e78a2" stroke-width="0.5" fill-rule="evenodd"/></g></g><rect width="20.86" height="8.344" transform="translate(15.477 54.636) rotate(-9)" fill="rgba(255,255,255,0.2)"/></g></g></svg>