<svg xmlns="http://www.w3.org/2000/svg" width="1024" height="248.533" viewBox="0 0 1024 248.533">
  <g id="payzily-original" transform="translate(0 0)">
    <path id="Tracé_5957" data-name="Tracé 5957" d="M1024,206.258a42.275,42.275,0,0,1-42.275,42.275H42.267A42.273,42.273,0,0,1,0,206.266V42.275A42.275,42.275,0,0,1,42.267,0H981.725A42.275,42.275,0,0,1,1024,42.275Z" transform="translate(0 0)" fill="#3351a3"/>
    <path id="Tracé_5958" data-name="Tracé 5958" d="M2.543,199.18A42.1,42.1,0,0,0,21.958,206l707.447-.455,20.668-32.515L198.788,6.558Z" transform="translate(16.417 42.337)" fill="#3351a3" opacity="0.4"/>
    <path id="Tracé_5959" data-name="Tracé 5959" d="M29.45,23.8A10.47,10.47,0,0,1,40.1,13.185H76.839c28.146,0,45.66,15.918,45.66,40.045v.336c0,26.871-21.622,40.9-48.06,40.9H50.572v28.914a10.558,10.558,0,0,1-21.115,0V23.8ZM75.117,75.464c15.97,0,25.924-8.895,25.924-21.383v-.343c0-14.032-10.125-21.391-25.924-21.391H50.565V75.464Zm58.864,31.486v-.336c0-19.512,15.277-29.093,37.428-29.093a75.87,75.87,0,0,1,24.381,3.773V79.065c0-12.831-7.9-19.676-22.494-19.676a54.179,54.179,0,0,0-20.086,3.586,11.535,11.535,0,0,1-3.266.514,8.634,8.634,0,0,1-8.753-8.515V54.93a9.068,9.068,0,0,1,5.666-8.216,77.9,77.9,0,0,1,29.182-5.3c13.562,0,23.695,3.594,30.047,10.1,6.688,6.509,9.782,16.09,9.782,27.892v44.489a9.882,9.882,0,0,1-10.125,9.924c-6.009,0-10.125-4.108-10.125-8.723v-3.422c-6.181,7.351-15.62,13.174-29.525,13.174C149.086,134.842,133.981,125.1,133.981,106.95Zm62.144-6.494V94.3a57.832,57.832,0,0,0-20.6-3.594c-13.391,0-21.286,5.652-21.286,15.061v.343c0,8.731,7.724,13.689,17.678,13.689C185.65,119.789,196.125,111.915,196.125,100.456Zm44.444,57.828c-3.094-1.021-6.524-3.586-6.524-8.544a8.34,8.34,0,0,1,8.41-8.559,10.836,10.836,0,0,1,3.78.686,23.463,23.463,0,0,0,7.21,1.2c6.181,0,9.447-2.572,12.884-9.581l.686-1.886L233.367,56.66a13.786,13.786,0,0,1-1.2-4.966,9.961,9.961,0,0,1,10.3-10.1c5.323,0,8.239,3.072,10.125,7.866l24.381,60.064,22.666-60.064c1.715-4.272,4.63-7.866,9.954-7.866a9.8,9.8,0,0,1,9.961,9.752,18.485,18.485,0,0,1-.857,4.958l-33.149,79.218c-7.724,18.483-15.963,25.32-30.561,25.32a36.561,36.561,0,0,1-14.412-2.565Zm92.676-33.708v-.343c0-3.929,1.387-6.5,4.645-9.924l48.232-54.756H343.386a8.47,8.47,0,1,1,0-16.94h59.751c5.666,0,9.946,3.422,9.946,8.216v.514c0,3.937-1.372,6.5-4.459,9.924l-48.418,54.756h44.631a8.467,8.467,0,1,1,0,16.932H343.386C337.54,132.956,333.246,129.369,333.246,124.575ZM433.653,18.322c0-6.159,5.152-10.1,11.855-10.1,6.681,0,11.84,3.937,11.84,10.1v1.021c0,6.159-5.152,10.267-11.84,10.267S433.653,25.5,433.653,19.344ZM435.2,52.03A10.247,10.247,0,0,1,445.508,41.6,10.388,10.388,0,0,1,455.976,52.03v71.524a10.392,10.392,0,0,1-20.78.149V52.03Zm49.089-34.565A10.21,10.21,0,0,1,494.6,7.2a10.354,10.354,0,0,1,10.468,10.267V123.554a10.392,10.392,0,0,1-20.78.149V17.465Zm49.947,140.818c-3.087-1.021-6.524-3.586-6.524-8.544a8.342,8.342,0,0,1,8.418-8.559,10.789,10.789,0,0,1,3.773.686,23.5,23.5,0,0,0,7.21,1.2c6.188,0,9.454-2.572,12.891-9.581l.686-1.886L527.03,56.66a13.937,13.937,0,0,1-1.193-4.966,9.956,9.956,0,0,1,10.3-10.1c5.316,0,8.239,3.072,10.118,7.866l24.381,60.064,22.673-60.064c1.715-4.272,4.63-7.866,9.946-7.866a9.8,9.8,0,0,1,9.961,9.752,18.2,18.2,0,0,1-.857,4.958l-33.126,79.226c-7.732,18.483-15.963,25.32-30.569,25.32A36.768,36.768,0,0,1,534.233,158.283Z" transform="translate(190.124 46.469)" fill="#fff"/>
    <path id="Tracé_5959_-_Contour" data-name="Tracé 5959 - Contour" d="M507.509,5.2a25.308,25.308,0,0,1,25.38,25.178v14.9A25.342,25.342,0,0,1,549.046,39.6a24.424,24.424,0,0,1,15.93,5.622,28.17,28.17,0,0,1,8.032,11.617L583.04,81.552l9.339-24.73C596.772,45.877,605.441,39.6,616.163,39.6A24.865,24.865,0,0,1,633.6,46.642a24.381,24.381,0,0,1,7.432,17.621,33.025,33.025,0,0,1-1.664,9.8l-.159.463L605.9,154.2c-4.925,11.773-10.31,19.818-16.949,25.32-7.437,6.163-16.392,9.16-27.378,9.16a51.528,51.528,0,0,1-19.589-3.49,23.724,23.724,0,0,1-16.273-22.538,23.25,23.25,0,0,1,23.329-23.471,24.792,24.792,0,0,1,6.159.756L532.889,90.265v46.2a24.907,24.907,0,0,1-7.558,18,25.379,25.379,0,0,1-17.821,7.181h-.1a25.23,25.23,0,0,1-24.363-19,24.815,24.815,0,0,1-6.806,11.814,25.379,25.379,0,0,1-17.821,7.181h-.1a25.163,25.163,0,0,1-20.967-11.327,23.555,23.555,0,0,1-19.605,10.461H356.3c-14.048,0-25.052-10.231-25.052-23.292v-.343c0-9.587,4.518-15.708,8.544-19.981l26.238-29.787H356.3a23.494,23.494,0,0,1-14.153-4.715L312.211,154.2c-4.917,11.765-10.3,19.811-16.944,25.316-7.437,6.163-16.391,9.159-27.374,9.159h-.075a51.23,51.23,0,0,1-19.5-3.483,23.716,23.716,0,0,1-16.272-22.538,24.406,24.406,0,0,1,.543-5.146,25.208,25.208,0,0,1-13.934,4.132,26.037,26.037,0,0,1-14.9-4.567,54.625,54.625,0,0,1-24.746,5.6c-27.248,0-47.024-18-47.024-42.8v-.336a45.432,45.432,0,0,1,2.095-13.876q-1.694,1.6-3.551,3.064c-11.265,8.878-26.195,13.571-43.175,13.571H78.4v14a25.292,25.292,0,0,1-25.38,25.35,25.528,25.528,0,0,1-18.041-7.323,25.1,25.1,0,0,1-7.518-18.027L27.45,36.714A25.379,25.379,0,0,1,53.009,11.185H89.751c17.435,0,32.4,5.092,43.273,14.725a50.558,50.558,0,0,1,14.927,23.577,23.62,23.62,0,0,1,6.384-3.748l.152-.058a93.067,93.067,0,0,1,34.464-6.268c21.723,0,34.044,7.825,40.58,14.45q1.086,1.066,2.091,2.2A24.892,24.892,0,0,1,255.375,39.6a24.429,24.429,0,0,1,15.934,5.622,28.219,28.219,0,0,1,8.031,11.606l10.034,24.72,9.333-24.724C303.1,45.877,311.773,39.6,322.5,39.6a24.9,24.9,0,0,1,17.7,7.349,23.361,23.361,0,0,1,16.1-6.335h59.751A25.115,25.115,0,0,1,437.11,51.289q.636-1.006,1.371-1.955a24.244,24.244,0,0,1-6.828-17.08V31.234c0-14.256,11.507-25.007,26.766-25.007,11.88,0,21.485,6.524,25.15,16.146A25.141,25.141,0,0,1,507.509,5.2ZM482.286,56.249V43.95a24.25,24.25,0,0,1-3.882,5.325A25.046,25.046,0,0,1,482.286,56.249ZM88.029,73.464c4.055,0,7.457-.909,9.334-2.493a4.7,4.7,0,0,0,1.679-3.979v-.343c0-3.164-1-3.959-1.423-4.3-1.712-1.365-5.3-2.18-9.589-2.18h-9.64V73.464ZM433.2,119.757V83.5q-.269.308-.536.6l-26.452,29.915h11.539A23.4,23.4,0,0,1,433.2,119.757Zm-171.67,20.178-17.835-39.721V136.8A25.292,25.292,0,0,1,243,142.69a23.3,23.3,0,0,1,12.364-3.511A24.844,24.844,0,0,1,261.527,139.935Z" transform="translate(177.213 33.557)" fill="#fff"/>
    <path id="Tracé_5960" data-name="Tracé 5960" d="M29.45,23.8A10.47,10.47,0,0,1,40.1,13.185H76.839c28.146,0,45.66,15.918,45.66,40.045v.336c0,26.871-21.622,40.9-48.06,40.9H50.572v28.914a10.558,10.558,0,0,1-21.115,0V23.8ZM75.117,75.464c15.97,0,25.924-8.895,25.924-21.383v-.343c0-14.032-10.125-21.391-25.924-21.391H50.565V75.464Zm58.864,31.486v-.336c0-19.512,15.277-29.093,37.428-29.093a75.87,75.87,0,0,1,24.381,3.773V79.065c0-12.831-7.9-19.676-22.494-19.676a54.179,54.179,0,0,0-20.086,3.586,11.535,11.535,0,0,1-3.266.514,8.634,8.634,0,0,1-8.753-8.515V54.93a9.068,9.068,0,0,1,5.666-8.216,77.9,77.9,0,0,1,29.182-5.3c13.562,0,23.695,3.594,30.047,10.1,6.688,6.509,9.782,16.09,9.782,27.892v44.489a9.882,9.882,0,0,1-10.125,9.924c-6.009,0-10.125-4.108-10.125-8.723v-3.422c-6.181,7.351-15.62,13.174-29.525,13.174C149.086,134.842,133.981,125.1,133.981,106.95Zm62.144-6.494V94.3a57.832,57.832,0,0,0-20.6-3.594c-13.391,0-21.286,5.652-21.286,15.061v.343c0,8.731,7.724,13.689,17.678,13.689C185.65,119.789,196.125,111.915,196.125,100.456Zm44.444,57.828c-3.094-1.021-6.524-3.586-6.524-8.544a8.34,8.34,0,0,1,8.41-8.559,10.836,10.836,0,0,1,3.78.686,23.463,23.463,0,0,0,7.21,1.2c6.181,0,9.447-2.572,12.884-9.581l.686-1.886L233.367,56.66a13.786,13.786,0,0,1-1.2-4.966,9.961,9.961,0,0,1,10.3-10.1c5.323,0,8.239,3.072,10.125,7.866l24.381,60.064,22.666-60.064c1.715-4.272,4.63-7.866,9.954-7.866a9.8,9.8,0,0,1,9.961,9.752,18.485,18.485,0,0,1-.857,4.958l-33.149,79.218c-7.724,18.483-15.963,25.32-30.561,25.32a36.561,36.561,0,0,1-14.412-2.565Zm92.676-33.708v-.343c0-3.929,1.387-6.5,4.645-9.924l48.232-54.756H343.386a8.47,8.47,0,1,1,0-16.94h59.751c5.666,0,9.946,3.422,9.946,8.216v.514c0,3.937-1.372,6.5-4.459,9.924l-48.418,54.756h44.631a8.467,8.467,0,1,1,0,16.932H343.386C337.54,132.956,333.246,129.369,333.246,124.575ZM433.653,18.322c0-6.159,5.152-10.1,11.855-10.1,6.681,0,11.84,3.937,11.84,10.1v1.021c0,6.159-5.152,10.267-11.84,10.267S433.653,25.5,433.653,19.344ZM435.2,52.03A10.247,10.247,0,0,1,445.508,41.6,10.388,10.388,0,0,1,455.976,52.03v71.524a10.392,10.392,0,0,1-20.78.149V52.03Zm49.089-34.565A10.21,10.21,0,0,1,494.6,7.2a10.354,10.354,0,0,1,10.468,10.267V123.554a10.392,10.392,0,0,1-20.78.149V17.465Zm49.947,140.818c-3.087-1.021-6.524-3.586-6.524-8.544a8.342,8.342,0,0,1,8.418-8.559,10.789,10.789,0,0,1,3.773.686,23.5,23.5,0,0,0,7.21,1.2c6.188,0,9.454-2.572,12.891-9.581l.686-1.886L527.03,56.66a13.937,13.937,0,0,1-1.193-4.966,9.956,9.956,0,0,1,10.3-10.1c5.316,0,8.239,3.072,10.118,7.866l24.381,60.064,22.673-60.064c1.715-4.272,4.63-7.866,9.946-7.866a9.8,9.8,0,0,1,9.961,9.752,18.2,18.2,0,0,1-.857,4.958l-33.126,79.226c-7.732,18.483-15.963,25.32-30.569,25.32A36.768,36.768,0,0,1,534.233,158.283Z" transform="translate(190.124 46.469)" fill="#3351a3"/>
    <g id="Groupe_9406" data-name="Groupe 9406" transform="translate(791.408 89.94)">
      <path id="Tracé_5961" data-name="Tracé 5961" d="M125.747,135.39q-1.967-.927-3.989-1.73l-15.613-6.241,1.678-4.205,7.732,3.094.015-.06a5.2,5.2,0,0,1-.276-4.861c1.3-3.236,4.936-4.541,9.074-2.856,4.876,1.946,6.069,6.024,4.831,9.118a4.818,4.818,0,0,1-3.8,3.2l-.03.06,1.8.925-1.424,3.556Zm-4.019-6.628a3.106,3.106,0,0,0,.775.216,2.759,2.759,0,0,0,2.982-1.678c.716-1.789-.231-3.452-2.662-4.421-2.1-.835-4.138-.567-4.921,1.394a2.811,2.811,0,0,0,1.089,3.3,3.524,3.524,0,0,0,.746.4l1.991.8Zm-1.685-18.356,7.456.634c.887.1,2,.216,2.781.336l.03-.089c-.641-.47-1.573-1.1-2.274-1.61l-5.987-4.309,1.8-4.518,7.657,6.718c4.585,4.093,6.233,6.248,6.979,8.306a8.441,8.441,0,0,1,.231,4.816l-3.929-.529a5.554,5.554,0,0,0,.015-2.117,5.377,5.377,0,0,0-.992-2.423,1.163,1.163,0,0,0-.522-.47,1.633,1.633,0,0,0-.775-.082l-14.345.007,1.871-4.667Zm17.3-17.909,4.25,3.243-1.73,4.369-16.38-13.152,2.214-5.54,20.973,1.678-1.819,4.533-5.361-.47L137.341,92.5ZM136.074,86.5l-4.414-.425c-1.238-.119-2.766-.336-3.989-.5l-.015.06c1.007.723,2.3,1.558,3.266,2.3l3.512,2.692,1.64-4.123Zm8.9-5.8-9.23-13.995-.119-.045-3.206,8.052-3.5-1.394,5.406-13.54,2.431.977L145.923,74.5l.1.045,3.542-8.835,3.482,1.4-5.793,14.5Zm-4.548-25.894-2,5.01-3.549-1.424,5.741-14.338,3.541,1.409-2.021,5.092,15.1,6.047-1.692,4.235-15.12-6.032Zm16.3-19.8-2.751,6.859,4.429,1.767,3.072-7.657,3.452,1.387-4.749,11.9L141.524,41.8l4.6-11.512,3.452,1.387-2.9,7.277,3.877,1.551,2.736-6.867L156.726,35Zm-9.29-7.985,1.663-4.183,8.254,3.3.03-.089c-.552-.7-1.051-1.417-1.543-2.1l-4.5-6.7,2.065-5.182,5.473,9.35,13.309-2.222-1.968,4.928-9.886,1.349,1.327,2.393,6.084,2.438-1.663,4.183-18.64-7.463Z" transform="translate(-106.146 -12.063)" fill="#fff"/>
    </g>
  </g>
</svg>
