<svg xmlns="http://www.w3.org/2000/svg" viewBox="0 0 128 160" x="0px" fill="#ffffff" y="0px"><g><path d="M89.572,34.917a17.323,17.323,0,0,1-2.206,2.2c-.716.641-1.576,1.4-2.539,2.225-.243.207-.49.418-.744.633s-.522.422-.789.641c-.541.429-1.1.875-1.671,1.329-1.135.923-2.273,1.739-3.288,2.484q-.759.579-1.429,1.094l-.653.494c-.195.163-.382.322-.561.474-.7.625-1.286,1.17-1.716,1.5-.442.311-.7.466-.724.43s.171-.258.557-.629.872-.951,1.56-1.644c.179-.171.367-.346.562-.533l.624-.521,1.394-1.143c1-.78,2.121-1.608,3.26-2.527.573-.454,1.134-.9,1.675-1.322.275-.211.542-.422.8-.625l.752-.613c.979-.8,1.871-1.512,2.623-2.1A12.46,12.46,0,0,1,89.572,34.917Z"/><path d="M62.337,61.848a9.2,9.2,0,0,1-1.747,2.385,14.843,14.843,0,0,1-1.059,1.05l-1.262,1.139c-.891.792-1.883,1.648-2.89,2.591-1.023.928-2,1.815-2.885,2.619a6.452,6.452,0,0,1-.709.562l-.366.246a2.1,2.1,0,0,1-.358.215c-.239.116-.47.231-.689.343-.247.115-.446.2-.661.29-.41.183-.776.354-1.094.51s-.582.29-.8.422c-.43.27-.681.406-.709.366s.171-.239.549-.573c.2-.164.466-.335.773-.542.31-.191.668-.4,1.07-.609.2-.1.406-.211.625-.322s.438-.247.669-.378a1.787,1.787,0,0,0,.33-.215c.1-.076.207-.155.315-.235a7.009,7.009,0,0,0,.645-.541c.433-.379.871-.86,1.353-1.29s.975-.9,1.485-1.365c2.014-1.887,4.032-3.4,5.333-4.622A21.3,21.3,0,0,1,62.337,61.848Z"/><path d="M41.372,82.248c.032.044-.155.223-.473.542a16.4,16.4,0,0,0-1.226,1.48c-1.008,1.3-2.4,3.081-3.85,5.111s-2.674,3.937-3.475,5.354c-.429.692-.724,1.3-.963,1.688s-.386.609-.426.589.028-.271.187-.7a16.7,16.7,0,0,1,.781-1.791,38.377,38.377,0,0,1,3.347-5.529,58.169,58.169,0,0,1,4.036-5.023,9.149,9.149,0,0,1,1.417-1.374C41.113,82.32,41.352,82.216,41.372,82.248Z"/><path d="M28.2,97.672c1.246.367.645,2.214.322,3.046-.5,1.281-1.576,3.076-3.049,3.327h-.012l-.043.012H25.4a.531.531,0,0,1-.084.012c-1.664-.076-1.513-1.536-.848-2.683a33.923,33.923,0,0,1,2.05-2.834C26.867,98.074,27.536,97.477,28.2,97.672Zm.016,1.346c.048-1.258-1.043-.143-1.405.366a8.815,8.815,0,0,1,1.21.689A4.478,4.478,0,0,0,28.213,99.018Zm-.442,1.735c-.016-.008-.032-.008-.044-.016a7.311,7.311,0,0,0-1.349-.756c-.136.175-.275.346-.414.522a11.454,11.454,0,0,0-.764,1.058c.529.267,1.054.538,1.592.781l.012,0A6.379,6.379,0,0,0,27.771,100.753Zm-1.513,2.122c-.469-.215-.931-.45-1.393-.685-.259.593-.278,1.115.43,1.159A2.207,2.207,0,0,0,26.258,102.875Z"/><path d="M63.631,57.207a1.028,1.028,0,0,1,.127.812,3.321,3.321,0,0,1-.235.721,5.921,5.921,0,0,1-.9,1.333q-.275.316-.573.633c-.2.211-.406.422-.641.633a31.533,31.533,0,0,1-3.24,2.527c-.585.458-1.175.968-1.807,1.485-.6.526-1.21,1.1-1.859,1.688a1.694,1.694,0,0,1-2.014,1.588,1.326,1.326,0,0,1-1.139-1.819,1.344,1.344,0,0,1,.76-.732,38.95,38.95,0,0,0,3.077-2.628,13.734,13.734,0,0,1,2.325-1.831c1.262-.756,1.723-1.038,1.787-.971.048.056-.354.478-1.552,1.322a16.878,16.878,0,0,0-2.181,1.882c-.637.6-1.37,1.318-2.281,2.07a1.161,1.161,0,0,1,1.039.47c.565-.513,1.106-1.019,1.644-1.485.644-.525,1.249-1.043,1.846-1.508a32.453,32.453,0,0,0,3.213-2.456,9.575,9.575,0,0,0,2.042-2.412,2.866,2.866,0,0,0,.211-.6.649.649,0,0,0-.024-.45c-.044-.076-.175-.112-.339-.092a1.765,1.765,0,0,0-.477.147,5.12,5.12,0,0,0-1.437,1.039c-.362.359-.653.649-.88.872-.462.454-.7.6-.728.577s.155-.239.557-.732c.2-.247.458-.569.812-.951a5.175,5.175,0,0,1,1.5-1.191,2.171,2.171,0,0,1,.6-.2,1.031,1.031,0,0,1,.382.008A.65.65,0,0,1,63.631,57.207ZM52.589,67.919c.5.035,1.509-.339,1.174-1.019a.2.2,0,0,1-.063-.024,1.794,1.794,0,0,0-.828-.227c-.2.055-.39.135-.542.191a.331.331,0,0,1-.147.024A.651.651,0,0,0,52,67.11.612.612,0,0,0,52.589,67.919Z"/><path d="M25.984,105.036c.04.02-.04.271-.223.709-.1.219-.207.485-.354.792s-.335.629-.534,1c-.764,1.489-1.819,3.567-3.037,5.819A42.946,42.946,0,0,1,18.413,119a6.917,6.917,0,0,1-1.919,1.962c-.075-.071.625-.852,1.533-2.237s2.01-3.415,3.22-5.688c1.226-2.257,2.34-4.287,3.216-5.732q.346-.531.621-.955c.171-.279.323-.522.446-.721C25.781,105.231,25.94,105.016,25.984,105.036Z"/><path d="M39.219,77.472c.036.02-.024.223-.215.537s-.538.732-.9,1.234c-.044.064-.087.127-.135.2s-.076.131-.116.2a2.925,2.925,0,0,0-.214.458c-.048.175-.1.35-.152.537s-.087.394-.131.6-.088.438-.147.649c-.028.107-.056.215-.088.326-.036.148-.08.227-.119.347-.16.442-.331.9-.538,1.349a19.129,19.129,0,0,1-2.631,4.347,11.047,11.047,0,0,1-1.051,1.13c-.27.243-.434.362-.469.331s.063-.207.27-.506.51-.72.868-1.238a27.626,27.626,0,0,0,2.4-4.335c.2-.437.374-.879.538-1.3.035-.1.095-.227.111-.3l.1-.322c.067-.215.107-.418.163-.621s.107-.41.163-.605.135-.394.2-.581l.012-.036.016-.032,0-.008.008-.016.032-.06.063-.123a1.551,1.551,0,0,1,.148-.239c.055-.079.111-.159.163-.235s.111-.135.167-.2c.438-.5.82-.84,1.063-1.1S39.171,77.448,39.219,77.472Z"/><path d="M24.821,97.939c.024.04-.187.243-.585.581-.2.167-.449.367-.74.6s-.629.474-.967.8c-1.417,1.2-3.292,2.958-5.282,4.992s-3.79,3.9-5.167,5.175A12.433,12.433,0,0,1,9.728,112a15.024,15.024,0,0,1,2.022-2.265c1.277-1.353,3.025-3.252,5.015-5.3a49.34,49.34,0,0,1,5.469-4.9,11.316,11.316,0,0,1,1.043-.724c.31-.2.585-.374.808-.51C24.535,98.031,24.8,97.9,24.821,97.939Z"/><path d="M42.272,86.487c-.657-.175-.6-.84-.967-1.249a15.976,15.976,0,0,0-1.019,1.54,9.922,9.922,0,0,0,.62.784,2.694,2.694,0,0,0,2.779-.756c.545-.522,1.067-1.083,1.632-1.584l.012-.024c.418-.856-1.063-2.655-1.549-3.209.319.363-2.742,2.516-1.405,3.8.152.143.677.33.617.565C42.929,86.615,42.435,86.531,42.272,86.487Zm78.646-80.7a.613.613,0,0,1-.1.709.505.505,0,0,1-.095.115c-1.652,1.489-3.412,2.858-5.036,4.375a25.017,25.017,0,0,1-3.709,3.069,3.158,3.158,0,0,1,.33.314c1.071-.975,2-2.1,3.117-3.021,1.226-1.011,2.575-1.871,3.7-2.993.546-.541,1.394.3.844.844-1.138,1.13-2.515,1.934-3.7,2.993s-2.218,2.261-3.42,3.292c0,.884-1.277,1.879-1.771,2.36-3.336,3.248-6.866,6.309-10.071,9.689a49.479,49.479,0,0,1-6.372,5.517c-2.385,1.783-4.542,3.769-6.755,5.759C83.708,42.551,79.262,46,75.226,49.9a3.589,3.589,0,0,0-1.341,2.392,2.54,2.54,0,0,1-.168.713,7.376,7.376,0,0,1-1.926,2.408,76.034,76.034,0,0,0-5.712,5.728,95.136,95.136,0,0,1-9.995,9.78c.155.231.3.462.45.7a.521.521,0,0,1-.048.657.666.666,0,0,1-.052.143,69.764,69.764,0,0,1-4.526,7.074,25.8,25.8,0,0,1-4.641,5.64c-1.612,1.353-2.985,3.176-4.955,4-1.107.466-2.066-.445-2.751-1.337-1.234,1.708-2.492,3.407-3.566,5.2-1.545,2.576-2.938,5.259-4.371,7.9-3,5.525-6.408,10.815-9.521,16.268a38.989,38.989,0,0,1-3.642,5.736c-.737.867-1.585,1.381-2.58.935a.664.664,0,0,1-.219-.1l-.039-.036c-.036-.024-.072-.04-.108-.064a.574.574,0,0,1-.163-.163,11.962,11.962,0,0,1-1.545-1.994,28.2,28.2,0,0,0-3.538-4.009c-1.214-1.13-3.041-2.157-3.531-3.845a.5.5,0,0,1-.1-.708,75.16,75.16,0,0,1,9.175-10.529c1.707-1.739,3.351-3.546,5.122-5.222a19.294,19.294,0,0,1,4.594-3.7,13.232,13.232,0,0,0,3.539-2.309,20.439,20.439,0,0,0,2.662-3.845c.693-1.257,1.493-2.615,2.114-4.024-.931-.78-2.488-1.5-2.313-2.957a.656.656,0,0,1,.673-.57.6.6,0,0,1,.175-.027,2.888,2.888,0,0,0,.526-.044,3.256,3.256,0,0,1,.036-.621.6.6,0,0,1,.159-.454c1.174-1.286,2.507-2.388,3.718-3.634.724-.744,1.671-1.771,2.806-1.728.239-.215.473-.43.712-.644a1.791,1.791,0,0,1-1.715-1.075,2.344,2.344,0,0,1,1.126-2.544c1.533-.692,2.317.725,2.3,2.062q2.43-2.233,4.792-4.542l0-.008a.582.582,0,0,1,.044-.664.5.5,0,0,1,.2-.41c2.134-1.791,4.478-3.411,6.433-5.4,1.3-1.329,1.966-2.113,3.717-2.133.008-.008.012-.016.02-.02a3.487,3.487,0,0,0,.776-.772,8.378,8.378,0,0,0-.644-.538,3.528,3.528,0,0,1-.426.084.6.6,0,0,1-.6-.6.609.609,0,0,1,.6-.6,1.2,1.2,0,0,0,.72-.422.468.468,0,0,1,.187-.128c2.1-2.093,4.757-3.486,6.93-5.5a.572.572,0,0,1,.426-.159.463.463,0,0,1,.3.008c.051.02.1.044.151.064,2.484-1.732,4.948-4.184,7.3-6.222q7.23-6.257,14.429-12.55Q94.546,24.32,101.68,18.1c2.3-2,4.546-4.132,6.958-6a.632.632,0,0,1,.637-.12c1.652-1.457,3.292-2.926,4.979-4.331a5.075,5.075,0,0,1-1.233-1.21.492.492,0,0,1-.088-.334.565.565,0,0,1,.131-.637,19.4,19.4,0,0,1,1.708-1.25.635.635,0,0,1,.155-.139.615.615,0,0,1,.816.215c.342.458.693.9,1.063,1.337.621-.461,1.254-.919,1.9-1.353a.507.507,0,0,1,.672.06.735.735,0,0,1,.08.039A4,4,0,0,1,120.918,5.787Zm-1.31.219a3.4,3.4,0,0,0-.6-.485,92.15,92.15,0,0,0-8.864,7.28,8.134,8.134,0,0,0,.74.51,26.073,26.073,0,0,0,4.394-3.567C116.71,8.486,118.187,7.276,119.608,6.006Zm-4.366.836c.207-.163.41-.326.617-.489-.255-.3-.5-.609-.745-.928q-.447.3-.875.633A3.53,3.53,0,0,0,115.242,6.842Zm-4.419,9.581c.327-.342,1.131-.856.478-1.373-.438-.346-.912-.637-1.365-.959-.036-.024-.068-.048-.1-.072a25.224,25.224,0,0,1-3.6,3.228,28.369,28.369,0,0,0-3.507,3.511c.127.115.251.231.366.354,1.015-.836,2.026-1.676,3.041-2.5.355-.291.864.215.506.5q-1.54,1.26-3.077,2.536a6.817,6.817,0,0,1,.693,1.035c.413-.379.827-.753,1.249-1.127C107.368,19.934,109.12,18.214,110.823,16.423Zm-1.552-2.838c-.092-.079-.183-.163-.271-.247-2.575,2.054-5.1,4.192-7.594,6.365.27.187.529.382.78.585a24.888,24.888,0,0,1,3.542-3.546A23.243,23.243,0,0,0,109.271,13.585ZM103.71,23.19a6.633,6.633,0,0,0-.7-1.083c-.426.351-.856.7-1.278,1.055-.35.3-.86-.211-.506-.509.434-.363.876-.721,1.314-1.083-.108-.111-.219-.219-.334-.322-2.552,2.392-5.2,4.7-7.862,6.985a1.978,1.978,0,0,1,1.449-.246c1.811.485.064,2.133-.6,2.794-.836.832-2.253,2.32-3.551,1.592-.023-.016-.035-.032-.055-.048,0,0-.012,0-.016-.008-.665-.517-.307-1.266.2-1.875q-1.7,1.452-3.388,2.918-3.5,3.063-7.029,6.106c-1.023.88-2.078,1.712-3.109,2.58-2.289,1.926-4.39,4.3-6.9,5.938.362.323.709.661,1.039,1a9.773,9.773,0,0,1,1.007,1.155,4.753,4.753,0,0,1,.6-.709c1.756-1.691,3.622-3.319,5.433-4.955,2.3-2.086,4.781-3.969,7.094-6.043,1.95-1.747,3.829-3.6,5.911-5.194a60.065,60.065,0,0,0,7.264-6.047C101,25.809,102.325,24.48,103.71,23.19Zm-2.05-2.412c-.258-.2-.529-.4-.812-.589-4.434,3.889-8.789,7.881-13.215,11.742Q80.5,38.147,73.347,44.35c-1.035.9-2.058,1.843-3.1,2.771.176.123.351.25.522.386,2.926-1.835,5.377-4.685,8.056-6.875.777-.636,1.549-1.265,2.309-1.922q3.684-3.177,7.344-6.381C92.875,28.5,97.4,24.766,101.66,20.778Zm-6.313,8.848c.12-.115,1-.975.148-.959a1.352,1.352,0,0,0-.737.155c-.044.028-.111.076-.191.132a3.058,3.058,0,0,1,.725.724C95.311,29.662,95.331,29.642,95.347,29.626Zm-.784.773c.072-.072.143-.14.215-.211a2.286,2.286,0,0,0-.832-.776c-.3.226-.633.493-.943.772.079.4.5.645.768.927l.02.032C94.1,30.872,94.376,30.586,94.563,30.4Zm-1.345,1.174a4.727,4.727,0,0,1-.773-.844c-.394.43-.6.824-.394,1.043A1.225,1.225,0,0,0,93.218,31.573ZM72.846,51.209A3.714,3.714,0,0,1,73,50.83a6.851,6.851,0,0,0-1.537-1.739A13.322,13.322,0,0,0,69.7,47.61c-.171.147-.338.3-.509.442,1.146,1.238,2.6,2.237,3.546,3.63A2.02,2.02,0,0,1,72.846,51.209Zm-.339,1.616c.012-.028.016-.048.028-.076-.02-.036-.036-.08-.052-.115-.011.015-.015.035-.027.047a2.279,2.279,0,0,1-.7.637c-.247.147-.5.307-.768.47-.263.147-.51.346-.78.525-1.035.769-1.891,1.6-2.544,2.178s-1.083.911-1.15.847.247-.509.812-1.178a15.193,15.193,0,0,1,2.484-2.388c.286-.191.549-.394.835-.549l.793-.438a2.253,2.253,0,0,0,.549-.406.216.216,0,0,0,.064-.163.558.558,0,0,0-.068-.231c-.112-.211-.235-.406-.334-.581a22.694,22.694,0,0,0-2.07-1.979,30.049,30.049,0,0,0-2.619,2.11.3.3,0,0,1-.064.239c-1.8,2.364-4.649,3.678-6.986,5.5a.337.337,0,0,1-.123.223c0,.008,0,.016-.012.024a38.067,38.067,0,0,1-5.9,5.556c-1.592,1.314-3.065,2.8-4.578,4.208a.327.327,0,0,1-.016.314.344.344,0,0,1-.123.116c-1.859,2.2-4.152,3.928-6.178,5.93a.373.373,0,0,1-.143.176.278.278,0,0,1-.06.019c-.3.307-.6.621-.887.944a.3.3,0,0,1-.271.111,6.382,6.382,0,0,1-1.25,1.059.365.365,0,0,1-.513-.028c-.012-.008-.028-.012-.04-.02-.06-.051-.112-.1-.163-.155-1.342,1.115-2.082,2.83-3.623,3.718-.131,2.8-1.632,5.465-2.969,7.9A20.174,20.174,0,0,1,29.916,92a15.925,15.925,0,0,1-3.626,2.4.791.791,0,0,1-.123.079c-.02.008-.04.02-.06.028-.095.056-.191.111-.286.171a.794.794,0,0,1-.164.068,24.527,24.527,0,0,0-4.916,4.287c-1.544,1.56-3.033,3.18-4.6,4.717a64.85,64.85,0,0,0-8.271,9.489c.449,1.6,2.615,2.739,3.725,3.873a37.971,37.971,0,0,1,2.743,3.093,14.278,14.278,0,0,0,1.855,2.436c1.385.633,4.458-5.334,4.876-6.074,1.584-2.814,3.256-5.569,4.92-8.335,3.224-5.37,5.879-11.193,9.334-16.408,1.226-1.847,2.675-3.53,3.805-5.441a30.856,30.856,0,0,1,1.815-2.623c.585-.784,1.811-1.847,2.126-2.759a.53.53,0,0,1,.231-.282c.7-.884,1.425-1.756,2.165-2.6a16.433,16.433,0,0,1,2.8-2.973c1.111-.76,2.325-1.373,3.4-2.185s2.081-1.684,3.073-2.576a.522.522,0,0,1,.179-.171c.008,0,.012-.008.02-.008,1.162-1.051,2.3-2.125,3.482-3.16a67.9,67.9,0,0,0,6.333-6.2A76.869,76.869,0,0,1,70.477,55,8.082,8.082,0,0,0,72.507,52.825Zm-3.459-3.9c-.139-.136-.27-.275-.4-.414-.656.553-1.329,1.086-2.022,1.584a2.078,2.078,0,0,1,.271.561A24.258,24.258,0,0,1,69.048,48.928Zm-3.491,3.315c.144-.147.283-.3.414-.453a3.266,3.266,0,0,0-.808-1.123c-.135.116-.266.235-.4.346A9.809,9.809,0,0,1,65.557,52.243Zm-.529.518c0-.008-.012-.012-.016-.02a7.588,7.588,0,0,0-.816-1.286c-1.055.816-2.157,1.573-3.224,2.373a1.457,1.457,0,0,1-.183,1.524,2.009,2.009,0,0,1,.255.259A33.246,33.246,0,0,0,65.028,52.761Zm-6.536,3.16c.892.132,2.038-.987,1.871-1.628a18.189,18.189,0,0,0-1.732,1.529A.488.488,0,0,1,58.492,55.921Zm1.959.211c-.036-.035-.072-.147-.116-.183a3.036,3.036,0,0,1-1.134.733c.051.079.087-.04.1.358h0A6.349,6.349,0,0,1,60.451,56.132Zm-3.03,2.95a4.407,4.407,0,0,0-3.1,1.711,2.77,2.77,0,0,1,.39.713A33.97,33.97,0,0,0,57.421,59.082ZM55.332,71.951c-.056-.088-.108-.171-.164-.255-.549.45-1.1.9-1.659,1.333a39.677,39.677,0,0,1-3.519,2.409s-.008,0-.012.008c.645.68,1.441,1.218,2.01,1.954A47.5,47.5,0,0,0,55.332,71.951Zm-1.469-9.764c.091-.072.183-.148.275-.219-.008-.02-.024-.032-.032-.056a2.694,2.694,0,0,0-.287-.6,12.9,12.9,0,0,1-.959.923c-.1.084-.2.164-.3.247a2.3,2.3,0,0,1,.4.438C53.258,62.672,53.556,62.425,53.863,62.187ZM52.41,63.393a1.612,1.612,0,0,0-.4-.45c-1.322,1.083-2.663,2.145-3.973,3.24a1.542,1.542,0,0,1,.064.175c.028.028.052.056.076.08.2.123.386.251.573.382C49.97,65.685,51.16,64.5,52.41,63.393ZM51.132,78.622c.144-.2.283-.4.426-.6A16.156,16.156,0,0,0,49.4,75.844c-.163.119-.323.246-.474.374A20.033,20.033,0,0,0,51.132,78.622Zm-.422.585c-.183-.159-.366-.318-.537-.486-.008.008-.012.016-.02.024a2.566,2.566,0,0,1-1.759.8,1.239,1.239,0,0,1-1.1-.812,1.553,1.553,0,0,1,.092-1c-.211.235-.422.478-.641.729Q45.7,79.661,44.7,80.879A3.9,3.9,0,0,1,46.6,84.091a20.806,20.806,0,0,0,2.8-3.081C49.835,80.417,50.273,79.812,50.71,79.207Zm-1.023-1q-.459-.5-.895-1.027c-.4.215-.948.828-.832,1.282a.636.636,0,0,0,.844.334A3.44,3.44,0,0,0,49.687,78.208Zm-1.46-10.52c-.12-.175-.231-.355-.355-.518-.016.016-.024.028-.04.044q-2.126,2.078-4.306,4.1c.151.135.306.267.449.41A56.022,56.022,0,0,0,48.227,67.688Zm-5.569,5.274c.263-.255.525-.506.792-.753-.147-.143-.3-.27-.454-.406-.243.227-.489.454-.736.677C42.383,72.647,42.523,72.807,42.658,72.962Zm-.5.493c-.143-.163-.29-.326-.426-.493-.207.187-.418.374-.624.561a2.92,2.92,0,0,1,.549.466C41.822,73.81,41.985,73.63,42.156,73.455Zm-1.337,1.258c.171-.159.318-.211.123-.378a4.287,4.287,0,0,0-.406-.3c-.071.064-.143.128-.215.2a.413.413,0,0,0-.051.035.437.437,0,0,1-.339.191.475.475,0,0,0-.051.438.262.262,0,0,0,.023.048.356.356,0,0,1,.112.159,1.248,1.248,0,0,0,.123.128A8.029,8.029,0,0,0,40.819,74.713Zm0-3.268c.1-.533.036-1.807-.565-1.369-.247.179-.753.892-.41,1.166A1.5,1.5,0,0,0,40.823,71.445Zm-1.572,3.722a1.142,1.142,0,0,1-.088-.621c-.824.322-1.552,1.361-2.094,1.9-.382.382-.776.744-1.17,1.106a8.087,8.087,0,0,1,.139,1.059C37.3,77.7,38.052,76.186,39.251,75.167ZM34.3,82.149a8.76,8.76,0,0,0,.541-3.6c-.25.243-.493.49-.732.745a.154.154,0,0,1,0,.043,1.293,1.293,0,0,0,0,.43c0,.024,0,.052,0,.076a.534.534,0,0,1-.227.748,2.8,2.8,0,0,1-1.031.3A4.347,4.347,0,0,0,34.3,82.149Z"/></g></svg>
