<svg xmlns="http://www.w3.org/2000/svg" data-name="Layer 1" fill="#ffffff" viewBox="0 0 1000 1250" x="0px" y="0px"><title>1148-Hunting</title><path d="M500,737.62a236.57,236.57,0,1,1,167.28-69.29A235,235,0,0,1,500,737.62Zm0-441.15c-112.8,0-204.57,91.77-204.57,204.57S387.2,705.62,500,705.62,704.57,613.84,704.57,501,612.8,296.47,500,296.47Z"/><path d="M500,837.88a336.83,336.83,0,1,1,238.18-98.66A334.64,334.64,0,0,1,500,837.88Zm0-641.67C331.91,196.21,195.17,333,195.17,501S331.91,805.88,500,805.88,804.83,669.13,804.83,501,668.09,196.21,500,196.21Z"/><path d="M500,440.62a16,16,0,0,1-16-16V100a16,16,0,0,1,32,0V424.62A16,16,0,0,1,500,440.62Z"/><path d="M500,916a16,16,0,0,1-16-16V575.38a16,16,0,0,1,32,0V900A16,16,0,0,1,500,916Z"/><path d="M424.62,516H100a16,16,0,0,1,0-32H424.62a16,16,0,0,1,0,32Z"/><path d="M900,516H575.38a16,16,0,0,1,0-32H900a16,16,0,0,1,0,32Z"/></svg>
