<svg xmlns="http://www.w3.org/2000/svg" xmlns:xlink="http://www.w3.org/1999/xlink" fill="#ffffff" version="1.1" x="0px" y="0px" viewBox="0 0 100 125" style="enable-background:new 0 0 100 100;" xml:space="preserve"><polygon points="50.9,50.3 56.2,48.4 62,45.7 67.5,45.6 72.2,42.9 77.5,41.1 77.5,41 72.1,42.7 67.4,45.1 61.7,45 55.9,47.6   50.5,49.3 50.4,42.7 50.3,33.6 50.8,27.6 50.1,23.1 50,16.6 49.9,16.6 49.8,23.1 50.3,27.6 49.9,33.4 49.6,42.7 49.5,49.3 45,47.9   39,46.1 37.7,45.2 35.8,45.2 27.1,42.5 27,42.6 35.6,45.6 37.4,45.7 38.6,46.6 44.7,48.7 49.1,50.3 46.8,53.7 45.4,56.1 42,60.6   39.7,64 37.3,67.4 37.4,67.5 39.9,64.2 42.4,60.8 45.9,56.6 47.5,54.2 50,50.9 52.1,52.8 54,57.1 57.4,60.8 58.9,62.5 61.2,65.5   61.2,65.4 59.2,62.4 57.9,60.5 54.6,56.7 52.9,52.5 "/><path d="M28.6,65L28.6,65L28.6,65C28.6,64.9,28.6,64.9,28.6,65C28.6,64.9,28.6,64.9,28.6,65L28.6,65L28.6,65  C28.6,64.9,28.6,64.9,28.6,65C28.6,64.9,28.6,64.9,28.6,65z"/><g><path d="M51.4,53.2c-1.4,0-2.5-0.6-3.2-1.9c-0.8-1.6-0.2-3.2,1.9-4.6c1-0.7,1.9-0.9,2.6-0.7c0.8,0.3,1.4,1.1,1.8,2.5l0,0   c0.4,1.5,0.4,2.7-0.1,3.4c-0.4,0.6-1,1-1.8,1.1C52.1,53.1,51.7,53.2,51.4,53.2z M52.1,46c-0.6,0-1.2,0.3-1.9,0.8   c-2,1.3-2.7,2.9-1.9,4.4c0.9,1.6,2.3,2.2,4.2,1.8c0.8-0.2,1.4-0.5,1.8-1.1c0.5-0.7,0.5-1.9,0.1-3.4l0,0c-0.4-1.3-0.9-2.2-1.7-2.4   C52.5,46,52.3,46,52.1,46z"/></g><g><path d="M51.4,55.6c-3,0-5-1.3-6.2-3.9c-0.6-1.5-0.6-2.8,0.1-4.1c0.7-1.2,2-2.4,3.9-3.3c1.9-1,3.5-1.2,4.7-0.6   c1.3,0.6,2.3,2.1,3,4.4c0,0,0,0,0,0c0.6,2.4,0.5,4.3-0.4,5.5c-0.7,1-1.9,1.6-3.7,1.8C52.4,55.5,51.9,55.6,51.4,55.6z M52.5,43.4   c-0.9,0-2,0.3-3.2,0.9c-3.9,1.9-5.2,4.3-4,7.2c1.3,3,3.8,4.3,7.5,3.8c1.7-0.2,2.9-0.8,3.6-1.8c0.9-1.2,1-3.1,0.4-5.5   c-0.6-2.3-1.6-3.8-2.9-4.4C53.5,43.5,53,43.4,52.5,43.4z"/></g><g><path d="M52.4,59.6c-1.3,0-2.6-0.4-4-1.2c-3.3-2.1-5.6-4.3-6.9-6.8c-1.4-2.7-0.6-5.4,2.5-8.1c3.1-2.7,6.3-3.6,9.5-2.6   c3.3,1,5.3,3.3,6.2,7l0,0c0.9,3.7,0,6.8-2.6,9.4C55.7,58.8,54.1,59.6,52.4,59.6z M51.1,40.6c-2.3,0-4.6,1-6.9,3   c-3.1,2.7-3.9,5.3-2.5,7.9c1.4,2.5,3.6,4.7,6.9,6.8c3.2,1.9,6.1,1.6,8.6-1c2.6-2.6,3.5-5.7,2.6-9.4l0,0c-0.9-3.7-2.9-6-6.2-7   C52.7,40.7,51.9,40.6,51.1,40.6z"/></g><g><path d="M52.3,62.1c-2.9,0-5.6-0.9-8.3-2.6c-2.9-2.1-4.8-4.5-6-7.4c-1.1-3-0.3-5.6,2.5-8c2.8-2.3,5.6-4.2,8.4-5.7   c2.8-1.5,5.7-1.1,8.6,1.1c2.9,2.3,4.6,5.1,5.1,8.4c0.5,3.4-0.1,6.6-1.9,9.4c-1.7,3-4.1,4.5-7.4,4.7C52.9,62.1,52.6,62.1,52.3,62.1z    M52.3,37.5c-1.1,0-2.3,0.3-3.4,0.9c-2.8,1.5-5.6,3.4-8.4,5.7C37.8,46.4,36.9,49,38,52c1.2,2.9,3.1,5.3,6,7.4c3,1.9,6,2.8,9.2,2.6   c3.3-0.2,5.7-1.7,7.4-4.7c1.8-2.8,2.4-6,1.9-9.4c-0.5-3.3-2.2-6.1-5.1-8.4C55.7,38.2,54,37.5,52.3,37.5z"/></g><g><path d="M53.2,65.2c-1.5,0-2.9-0.4-4.2-1.2c-2.4-1.5-5.2-3-8.5-4.5c-3.2-1.5-5-3.9-5.7-7.2c-0.7-3.4,0.2-6.1,2.7-8.1   c2.7-2.3,5.1-4.6,7-6.9c2.1-2.5,4.8-3.3,8.1-2.5c3.3,0.8,6.1,2.3,8.5,4.6c2.4,2.3,3.7,5,4,8.3l0,0c0.3,3.3-0.1,6.4-1.1,9.4   c-1,3-3,5.3-6.3,6.9C56.2,64.8,54.6,65.2,53.2,65.2z M50.2,34.5c-2.3,0-4.1,0.9-5.7,2.8c-1.9,2.3-4.3,4.6-7,6.9   c-2.5,2-3.4,4.7-2.7,8.1c0.7,3.3,2.5,5.6,5.7,7.2c3.3,1.5,6.1,3,8.5,4.5c2.6,1.6,5.6,1.6,8.7,0c3.3-1.6,5.3-3.9,6.3-6.9   c1-3,1.4-6.1,1.1-9.4l0,0c-0.3-3.3-1.6-6-4-8.3c-2.4-2.3-5.2-3.8-8.5-4.6C51.8,34.6,51,34.5,50.2,34.5z"/></g><g><path d="M50.9,68c-2.3,0-4.4-0.9-6.3-2.6c-2.4-2.1-4.9-3.9-7.9-5.6c-2.8-1.6-4.4-4-4.9-7.4c-0.4-3.4,0.4-6.3,2.3-8.5   c0.9-1.1,1.9-2.2,2.8-3.2c1.1-1.3,2.2-2.6,3.3-3.9c2.1-2.4,4.7-3.9,7.8-4.5c3.1-0.6,6.1-0.2,9,1.2c2.7,1.4,5.2,3.3,7.4,5.8   c2.1,2.5,3.2,5.4,3.3,8.4l0,0c0.1,3.3-0.1,6.4-0.7,9.3c-0.6,3.1-2.3,5.5-5.1,7.2c-2.9,1.7-5.9,2.9-8.9,3.5   C52.4,67.9,51.6,68,50.9,68z M50.8,32.1c-0.9,0-1.8,0.1-2.7,0.3c-3.1,0.6-5.7,2.1-7.8,4.5c-1.1,1.3-2.2,2.6-3.3,3.9   c-0.9,1.1-1.9,2.2-2.8,3.2c-1.9,2.2-2.7,5.1-2.3,8.5c0.5,3.4,2.1,5.8,4.9,7.4c3,1.7,5.5,3.5,7.9,5.6c2.4,2.2,5.2,3,8.4,2.3   c3.1-0.6,6-1.8,8.9-3.5c2.8-1.7,4.5-4.1,5.1-7.2c0.6-2.9,0.8-6,0.7-9.3l0,0c-0.1-3-1.2-5.9-3.3-8.4c-2.2-2.5-4.6-4.4-7.4-5.8   C55.1,32.6,53,32.1,50.8,32.1z"/></g><g><path d="M52,70.7c-1.1,0-2.2-0.1-3.3-0.4c-3-0.8-5.6-2.1-8.1-4.2c-2.3-2-4.7-3.9-7.2-5.7c-2.5-1.8-3.9-4.3-4.2-7.6   c-0.3-3.3,0.2-6.4,1.6-9c1.3-2.6,3.3-4.8,5.9-6.8c2.6-2,5-3.9,7.3-5.8c2.4-2,5.2-2.6,8.3-1.9c3.1,0.7,6,1.9,8.7,3.5   c2.6,1.6,4.8,3.7,6.6,6.3c1.8,2.5,2.7,5.4,2.8,8.6l0,0c0.1,2.9-0.1,6.1-0.5,9.4c-0.4,3.2-1.8,5.7-4.3,7.6c-2.5,1.9-5.2,3.5-8.1,4.8   C55.7,70.3,53.9,70.7,52,70.7z M49.9,29c-2.2,0-4.2,0.7-5.9,2.2c-2.3,1.9-4.7,3.8-7.3,5.8c-2.6,2-4.6,4.2-5.9,6.8   c-1.4,2.6-1.9,5.6-1.6,9c0.3,3.3,1.7,5.8,4.2,7.6c2.5,1.8,4.9,3.7,7.2,5.7c2.5,2.1,5.1,3.4,8.1,4.2c3,0.8,5.9,0.5,8.8-0.8   c2.9-1.3,5.6-2.9,8.1-4.8c2.5-1.9,3.9-4.4,4.3-7.6c0.4-3.3,0.6-6.5,0.5-9.4l0,0c-0.1-3.2-1-6-2.8-8.6c-1.8-2.6-4-4.7-6.6-6.3   c-2.7-1.6-5.6-2.8-8.7-3.5C51.5,29.1,50.7,29,49.9,29z"/></g><g><path d="M50.6,73.8c-2.2,0-4.2-0.6-6.1-1.9c-2.6-1.7-5.2-3.4-7.8-4.9c-2.6-1.5-4.8-3.4-6.8-5.8c-1.9-2.3-3-5.1-3.3-8.2   c-0.2-3.3,0.1-6.3,1-9.1c0.9-3,2.6-5.3,5.2-7.1c2.4-1.7,4.7-3.7,7-6.2c2.1-2.4,4.7-3.7,7.8-3.9c3-0.3,6,0.1,9,1.1   c3,1,5.7,2.5,8,4.3c2.3,1.8,4.3,4,6,6.9c1.5,2.7,2.3,5.6,2.4,8.6c0,0,0,0,0,0c0,2.8-0.2,6-0.5,9.4c-0.3,3.1-1.5,5.8-3.5,8.1   c-2.1,2.4-4.5,4.3-7.2,5.5c-3,1.4-5.9,2.3-8.8,2.9C52.3,73.7,51.4,73.8,50.6,73.8z M49.7,26.7c-0.7,0-1.3,0-2,0.1   c-3.1,0.2-5.7,1.5-7.8,3.9c-2.3,2.5-4.6,4.5-7,6.2c-2.6,1.8-4.3,4.1-5.2,7.1c-0.9,2.8-1.2,5.8-1,9.1c0.3,3.1,1.4,5.9,3.3,8.2   c2,2.4,4.2,4.3,6.8,5.8c2.6,1.5,5.2,3.2,7.8,4.9c2.6,1.7,5.3,2.2,8.5,1.6c2.9-0.6,5.8-1.5,8.8-2.9c2.7-1.2,5.1-3.1,7.2-5.5   c2-2.3,3.2-5,3.5-8.1c0.3-3.4,0.5-6.6,0.5-9.4c-0.1-3-0.9-5.9-2.4-8.6c-1.7-2.9-3.7-5.1-6-6.9c-2.3-1.8-5-3.3-8-4.3   C54.4,27.1,52,26.7,49.7,26.7z"/></g><g><path d="M50.8,76.4c-2.6,0-4.9-0.8-7-2.3c-2.7-2-5.6-3.8-8.7-5.4c-3.1-1.7-5.7-3.8-7.6-6.4c-2-2.7-3.1-5.7-3.4-9.3   c-0.3-3.4,0-6.9,0.9-10.3c0.9-3.5,2.9-6.1,5.9-7.7c3.1-1.8,5.8-4,7.9-6.6c2.2-2.7,5.1-4.2,8.6-4.4c3.6-0.2,7,0.2,10.2,1.3   c3.4,1.1,6.4,2.8,8.9,4.9c2.7,2.2,4.9,4.8,6.6,7.8c1.7,3.1,2.6,6.3,2.6,9.6c0,3.3-0.2,6.7-0.4,10.2l0,0.3c-0.3,3.6-1.7,6.6-4.1,8.9   c-2.5,2.4-5.3,4.4-8.3,5.9c-3,1.6-6.3,2.7-9.8,3.3C52.3,76.3,51.5,76.4,50.8,76.4z M49.1,23.9c-0.6,0-1.1,0-1.7,0   c-3.5,0.2-6.4,1.7-8.6,4.4c-2.1,2.6-4.8,4.8-7.9,6.6c-3,1.7-5,4.2-5.9,7.7c-0.9,3.4-1.2,6.9-0.9,10.3c0.3,3.6,1.4,6.6,3.4,9.3   c1.9,2.6,4.5,4.7,7.6,6.4c3.1,1.6,6,3.4,8.7,5.4c2.7,2,5.8,2.7,9.3,2.1c3.5-0.6,6.8-1.7,9.8-3.3c3-1.5,5.8-3.5,8.3-5.9   c2.4-2.3,3.8-5.3,4.1-8.9l0-0.3c0.2-3.5,0.4-6.9,0.4-10.2c0-3.3-0.9-6.5-2.6-9.6c-1.7-3-3.9-5.6-6.6-7.8C64,28,61,26.4,57.6,25.2   C54.9,24.4,52,23.9,49.1,23.9z"/></g><g><path d="M48,86.9c-3.7,0-6.7-1.1-9.4-3.4c-2.5-2.2-5.3-4-8.7-5.6c-3.1-1.4-5.9-3.3-8.5-5.9c-2.4-2.3-4.2-5.2-5.5-8.7   C14.7,60,14,56.6,13.7,53c-0.3-3.4-0.1-6.9,0.5-10.5c0.6-3.6,1.8-6.7,3.7-9.7c1.8-2.9,4.2-5.4,7.3-7.2c2.9-1.8,5.5-4,7.8-6.8   c2.2-2.8,5.1-4.4,8.7-4.9c3.5-0.5,6.9-0.6,10.6-0.4c3.6,0.2,7,0.9,10.2,2.2c3.3,1.2,6.4,2.9,9.2,5c2.7,2,5.2,4.4,7.5,7.3   c2.4,3,4.1,6,5.2,9.1c1.2,3.2,1.8,6.6,1.9,10.2l0,0c0.1,3.4-0.1,6.8-0.5,10.5c-0.5,3.3-1.4,6.8-2.6,10.2c-1.2,3.3-3.3,6.1-6.1,8.2   c-2.7,2.1-5.7,4.1-8.9,5.7c-3.4,1.8-6.6,3-9.7,3.7C54.8,86.5,51.4,86.9,48,86.9z M49,13.5c-2.5,0-4.9,0.2-7.3,0.5   c-3.7,0.5-6.5,2.1-8.7,4.9c-2.2,2.8-4.9,5-7.8,6.8c-3.1,1.8-5.5,4.3-7.3,7.2c-1.9,3-3.1,6.1-3.7,9.7c-0.6,3.6-0.8,7.1-0.5,10.5   c0.3,3.6,1,7,2.2,10.3c1.3,3.5,3.1,6.4,5.5,8.7c2.6,2.6,5.4,4.5,8.5,5.9c3.4,1.6,6.2,3.4,8.7,5.6c2.7,2.3,5.7,3.4,9.4,3.4   c3.3,0,6.8-0.4,10.5-1.3c3.1-0.7,6.3-1.9,9.7-3.7c3.2-1.6,6.2-3.6,8.9-5.7c2.8-2.1,4.9-4.9,6.1-8.2c1.2-3.4,2.1-6.9,2.6-10.2   c0.4-3.7,0.6-7.1,0.5-10.5l0,0c-0.1-3.6-0.7-7-1.9-10.2C83.2,34,81.5,31,79.2,28c-2.3-2.9-4.8-5.3-7.5-7.3c-2.8-2.1-5.9-3.8-9.2-5   c-3.2-1.3-6.6-2-10.2-2.2C51.2,13.5,50.1,13.5,49,13.5z"/></g><g><path d="M50.3,84.3c-2.5,0-4.9-0.4-7.4-1.3c-3.2-1.1-6.2-2.8-9-5.2c-2.9-2.5-5.7-4.5-8.6-6.3c-3-1.9-5.2-4.6-6.5-8   c-1.3-3.5-2.1-7-2.4-10.5c-0.3-3.5-0.1-7.1,0.5-10.8c0.6-3.5,2.2-6.6,4.7-9.1c2.5-2.5,5-5,7.4-7.5c2.5-2.6,5.2-4.8,8.2-6.5   c3.2-1.8,6.6-2.8,10-3c3.4-0.3,6.9,0,10.6,1c3.4,0.9,6.6,2.3,9.8,4.2c3.2,2,5.9,4.2,8.2,6.8c2.4,2.7,4.3,5.7,5.7,9   c1.4,3.4,2.1,6.8,2.2,10.4c0,0,0,0,0,0c0,3.2-0.2,6.7-0.5,10.9c-0.5,3.6-1.6,7-3.1,10.1c-1.6,3.2-3.9,5.7-7,7.7   c-3,1.8-6.2,3.5-9.5,5.1c-3.2,1.5-6.6,2.4-10.3,2.8C52.3,84.2,51.3,84.3,50.3,84.3z M49.6,15.9c-0.8,0-1.6,0-2.4,0.1   c-3.5,0.2-6.8,1.2-10,3c-3,1.7-5.7,3.9-8.2,6.5c-2.4,2.5-4.9,5-7.4,7.5c-2.6,2.6-4.1,5.5-4.7,9.1c-0.6,3.7-0.8,7.3-0.5,10.8   c0.3,3.5,1.1,7,2.4,10.5c1.3,3.4,3.5,6.1,6.5,8c2.9,1.8,5.7,3.8,8.6,6.3c2.8,2.4,5.8,4.1,9,5.2c3.5,1.2,6.9,1.6,10.4,1.1   c3.7-0.4,7-1.3,10.3-2.8c3.3-1.6,6.5-3.3,9.5-5.1c3.1-2,5.4-4.5,7-7.7c1.5-3.1,2.6-6.5,3.1-10.1c0.3-4.2,0.5-7.7,0.5-10.9   c-0.1-3.6-0.8-7-2.2-10.4c-1.4-3.3-3.3-6.3-5.7-9c-2.3-2.6-5-4.8-8.2-6.8c-3.2-1.9-6.4-3.3-9.8-4.2C54.9,16.3,52.2,15.9,49.6,15.9z   "/></g><g><path d="M50.4,81.5c-2.4,0-4.7-0.4-6.9-1.2c-3-1.1-5.8-2.8-8.2-5c-2.3-2.1-5-4.1-8-5.7c-2.9-1.6-5-4-6.2-7.1   c-1.2-2.9-2-6.1-2.3-9.6c-0.2-3.6-0.1-6.9,0.5-9.9c0.5-3.2,1.9-6.1,4.3-8.4c1.1-1,2.2-2.1,3.3-3.2c1.2-1.2,2.5-2.4,3.7-3.5   c2.4-2.2,4.9-4.2,7.6-6.1c2.7-1.9,5.7-2.9,9.1-3.1c3.4-0.2,6.7,0.1,9.8,1c3.1,0.8,6.1,2.1,9,3.8c3.1,1.9,5.6,3.9,7.6,6.2   c2.2,2.5,4,5.3,5.3,8.3c1.2,2.8,1.9,6,2,9.5c0.1,3.4-0.1,6.6-0.7,9.8c-0.4,3.3-1.3,6.4-2.7,9.4c-1.4,2.9-3.5,5.3-6.4,7.1   c-2.8,1.8-5.7,3.4-8.7,4.8c-2.9,1.4-6,2.3-9.4,2.7C52.2,81.5,51.3,81.5,50.4,81.5z M49.2,18.7c-0.6,0-1.3,0-1.9,0.1   c-3.4,0.2-6.4,1.2-9.1,3.1c-2.7,1.9-5.2,3.9-7.6,6.1c-1.2,1.2-2.5,2.4-3.7,3.5c-1.1,1.1-2.2,2.1-3.3,3.2c-2.4,2.4-3.8,5.2-4.3,8.4   c-0.6,3.1-0.7,6.3-0.5,9.9c0.3,3.5,1.1,6.7,2.3,9.6c1.2,3.1,3.3,5.5,6.2,7.1c3,1.6,5.7,3.6,8,5.7c2.4,2.2,5.2,3.9,8.2,5   c3,1.1,6.2,1.4,9.6,1c3.4-0.4,6.5-1.3,9.4-2.7c3-1.4,5.9-3,8.7-4.8c2.9-1.8,5-4.2,6.4-7.1c1.4-3,2.3-6.1,2.7-9.4   c0.6-3.2,0.8-6.4,0.7-9.8c-0.1-3.5-0.8-6.7-2-9.5c-1.3-3-3.1-5.8-5.3-8.3c-2-2.3-4.5-4.3-7.6-6.2c-2.9-1.7-5.9-3-9-3.8   C54.6,19,52,18.7,49.2,18.7z"/></g><g><path d="M49.9,78.7c-0.6,0-1.1,0-1.7,0c-3.6-0.3-6.5-1.7-8.7-4.1c-2.6-2.6-5.3-4.5-8.3-5.7c-3.2-1.3-5.6-3.5-7.1-6.5   c-1.5-3-2.4-6.2-2.7-9.5c-0.3-3.3-0.1-6.7,0.6-10.1c0.6-3.4,2.4-6.1,5.2-7.9c2.7-1.8,5.2-4,7.4-6.7c2.1-2.6,4.7-4.5,7.9-5.7   c3.3-1.1,6.6-1.5,9.8-1c3.2,0.4,6.4,1.3,9.6,2.8c3.2,1.4,5.9,3.3,8.2,5.6c2.4,2.3,4.3,5,5.9,8.1c1.6,3.2,2.3,6.4,2.3,9.6   c0.1,2.9,0,6.1-0.4,9.9c-0.3,3.4-1.4,6.5-3.3,9.2c-1.9,2.9-4.3,5-7.3,6.6c-3.1,1.7-6.2,3-9.2,4.1C55.6,78.2,52.8,78.7,49.9,78.7z    M49.5,21.2c-2.3,0-4.6,0.4-6.9,1.2c-3.2,1.2-5.7,3-7.9,5.7c-2.2,2.7-4.7,4.9-7.4,6.7c-2.8,1.8-4.6,4.5-5.2,7.9   c-0.7,3.4-0.9,6.8-0.6,10.1c0.3,3.3,1.2,6.5,2.7,9.5c1.5,3,3.9,5.2,7.1,6.5c3,1.2,5.7,3.1,8.3,5.7c2.2,2.4,5.1,3.8,8.7,4.1   c3.6,0.2,6.9-0.2,9.9-1.3c3-1.1,6.1-2.4,9.2-4.1c3-1.6,5.4-3.7,7.3-6.6c1.9-2.7,3-5.8,3.3-9.2c0.4-3.8,0.5-7,0.4-9.9c0,0,0,0,0,0   c0-3.3-0.8-6.4-2.3-9.6c-1.6-3.1-3.5-5.8-5.9-8.1c-2.3-2.3-5-4.2-8.2-5.6c-3.2-1.5-6.4-2.4-9.6-2.8C51.4,21.3,50.4,21.2,49.5,21.2z    M78.3,47.5L78.3,47.5L78.3,47.5z"/></g><g><path d="M50.1,89.4c-2.2,0-4.5-0.2-7.1-0.5c-3.5-0.5-6.4-2.1-8.7-4.8c-2.3-2.7-5.2-4.7-8.5-5.8c-3.4-1.2-6.1-3.2-8.1-6   C15.5,69.1,14,66.1,13,63c-1-3-1.7-6.4-2-10.1c-0.3-3.3-0.1-6.7,0.5-10.2c0.6-3.3,1.6-6.5,3-9.9c1.4-3.3,3.7-5.7,6.9-7.2   c3.3-1.5,5.8-3.8,7.6-6.9c1.9-3.2,4.5-5.1,7.9-6c3.3-1,6.6-1.6,10.2-1.9c3.5-0.3,6.9-0.1,10.2,0.7c3.6,0.9,6.8,2,9.7,3.4   c3.1,1.4,6,3.3,8.6,5.6c2.9,2.7,5.1,5.1,6.9,7.6c2.1,2.9,3.6,5.9,4.7,9.1c1.1,3.3,1.7,6.7,1.8,10.1c0,0,0,0,0,0   c0,3.2-0.2,6.5-0.5,10.2c-0.5,3.7-1.3,7-2.2,10.1c-1,3.4-2.7,6.3-5.3,8.6c-2.8,2.6-5.5,4.6-8.3,6.2c-3,1.7-6.1,3.2-9.3,4.5   c-3,1.2-6.3,2-10,2.3C52.3,89.3,51.2,89.4,50.1,89.4z M50.1,10.7c-1,0-2,0-2.9,0.1c-3.6,0.3-6.9,0.9-10.2,1.9c-3.4,0.9-6,2.9-7.9,6   c-1.8,3.1-4.3,5.4-7.6,6.9c-3.2,1.5-5.5,3.9-6.9,7.2c-1.5,3.4-2.4,6.6-3,9.9c-0.6,3.5-0.8,6.9-0.5,10.2c0.3,3.7,1,7,2,10.1   c1,3.1,2.6,6.1,4.7,9.2c2,2.8,4.7,4.8,8.1,6c3.3,1.1,6.2,3.1,8.5,5.8c2.3,2.7,5.2,4.3,8.7,4.8c3.9,0.5,7.2,0.7,10.4,0.4   c3.7-0.3,7-1.1,10-2.3c3.2-1.3,6.3-2.8,9.3-4.5c2.8-1.6,5.5-3.6,8.3-6.2c2.6-2.4,4.3-5.2,5.3-8.6c0.9-3.1,1.7-6.4,2.2-10.1   c0.3-3.7,0.5-7,0.5-10.2c-0.1-3.5-0.7-6.8-1.8-10.1c-1.1-3.2-2.6-6.1-4.7-9.1c-1.8-2.5-4-4.9-6.9-7.6c-2.6-2.3-5.5-4.2-8.6-5.6   c-2.9-1.4-6.1-2.5-9.7-3.4C54.9,11,52.5,10.7,50.1,10.7z"/></g><path d="M11.2,72.8c0.4-0.3,0.7-0.5,1.1-0.8c-0.1-0.1-0.1-0.2-0.2-0.3c-0.4,0.2-0.8,0.3-1.2,0.5C9,69,7.6,65.6,6.6,62  c0.8-0.3,1.6-0.7,2.5-1c-0.9,0.1-1.8,0.2-2.6,0.3c-1-3.6-1.5-7.2-1.5-11c0.9-0.1,1.8-0.2,2.6-0.3c-0.9-0.1-1.8-0.2-2.6-0.3  c0-3.7,0.5-7.4,1.4-11C7.3,38.8,8.2,38.9,9,39c-0.8-0.3-1.6-0.7-2.5-1c1-3.6,2.4-7,4.2-10.2c0.4,0.2,0.8,0.3,1.2,0.5  c0.1-0.1,0.1-0.2,0.2-0.3c-0.4-0.3-0.7-0.5-1.1-0.8c1.9-3.3,4.3-5.8,7-7.7c0.2-0.1,0.4-0.3,0.6-0.4c0.4,0.3,0.8,0.6,1.3,1  c-0.3-0.4-0.6-0.8-0.9-1.2c2.5-1.8,5.3-4,8.4-6.5c0.1-0.1,0.2-0.2,0.4-0.3c0.3,0.4,0.6,0.8,1,1.3c-0.2-0.5-0.4-1-0.6-1.5  c3.1-2.5,6.4-4.2,9.8-5.2c0.3,0.8,0.7,1.6,1,2.5c-0.1-0.9-0.2-1.8-0.3-2.6c3.6-0.9,7.2-1.4,11-1.4C49.8,6.1,49.9,7,50,7.8  c0.1-0.9,0.2-1.8,0.3-2.6c3.7,0,7.4,0.5,11,1.4c-0.1,0.9-0.2,1.8-0.3,2.6c0.3-0.8,0.7-1.6,1-2.5c3.6,1,7,2.4,10.2,4.2  c-0.3,0.8-0.7,1.6-1,2.5c0.5-0.7,1.1-1.4,1.6-2.1c3.2,1.9,6.1,4.1,8.8,6.7c-0.6,0.6-1.1,1.3-1.6,2c0.7-0.5,1.4-1.1,2.1-1.6  c2.6,2.6,4.8,5.6,6.7,8.8c-0.7,0.5-1.4,1.1-2.1,1.6c0.8-0.3,1.6-0.7,2.5-1C91,31,92.4,34.4,93.4,38c-0.8,0.3-1.6,0.7-2.5,1  c0.9-0.1,1.8-0.2,2.6-0.3c0.9,3.6,1.4,7.2,1.4,11c-0.9,0.1-1.8,0.2-2.6,0.3c0.9,0.1,1.8,0.2,2.6,0.3c0,2.7-0.6,6.4-1.5,10.9  c-0.8-0.1-1.7-0.2-2.5-0.3c0.8,0.3,1.6,0.7,2.4,1c-0.4,1.9-0.9,3.9-1.5,6.1c-0.4,1.6-0.9,3.1-1.5,4.6c-0.8-0.3-1.6-0.7-2.4-1  c-0.1,0.1-0.1,0.2-0.2,0.3c0.7,0.5,1.4,1.1,2.1,1.6c-1.6,3.5-3.8,6.4-6.6,8.9c-0.7-0.6-1.5-1.1-2.2-1.7c-0.1,0.1-0.2,0.2-0.2,0.2  c0.6,0.7,1.1,1.4,1.7,2.2c-1.3,1.1-2.8,2.1-4.4,2.9c-1.8,1-3.6,1.9-5.2,2.7c-0.6-0.7-1.1-1.4-1.7-2.2c0.3,0.8,0.7,1.6,1,2.5  c-4.2,2.1-7.6,3.5-10.2,4.2c-0.3-0.8-0.7-1.6-1-2.5c0.1,0.9,0.2,1.8,0.3,2.6c-3.6,0.9-7.2,1.4-11,1.4c-0.1-0.9-0.2-1.8-0.3-2.6  c-0.1,0.9-0.2,1.8-0.3,2.6c-3.7,0-7.4-0.5-11-1.4c0.1-0.9,0.2-1.8,0.3-2.6c-0.3,0.8-0.7,1.6-1,2.5c-3.7-1-6.7-2.5-9.2-4.4  c-0.2-0.2-0.5-0.4-0.7-0.6c0.2-0.6,0.5-1.2,0.7-1.7c-0.4,0.5-0.7,1-1.1,1.4c-2.3-1.8-5.1-3.9-8.2-6.3c-0.2-0.1-0.4-0.3-0.6-0.4  c0.4-0.5,0.7-1,1.1-1.4c-0.5,0.4-1,0.8-1.5,1.1C15.4,78.6,13,75.8,11.2,72.8z M91.6,47.3c-0.1-3.7-0.7-7.3-1.9-10.8s-2.8-6.8-5-9.8  s-4.6-5.7-7.4-8.2s-5.8-4.5-9.2-6s-6.8-2.8-10.4-3.6c-3.6-0.8-7.2-1.1-10.9-0.7c-3.7,0.3-7.3,1-11,2.1c-3.7,1-6.5,3.1-8.4,6.3  s-4.4,5.4-7.7,7s-5.8,4.2-7.4,7.6s-2.8,7-3.4,10.6c-0.7,3.6-0.9,7.3-0.7,11s0.9,7.3,2.1,10.8c1.2,3.5,2.8,6.8,4.8,9.9  c2.1,3.1,4.9,5.3,8.5,6.6c3.6,1.3,6.6,3.3,9.2,6.1c2.5,2.8,5.7,4.5,9.4,5.1s7.4,0.8,11.1,0.5c3.7-0.3,7.2-1,10.7-2.4  c3.4-1.3,6.7-2.9,9.9-4.8c3.2-1.9,6.1-4.1,8.9-6.6c2.7-2.5,4.7-5.6,5.8-9.1c1.1-3.5,1.9-7.1,2.5-10.8C91.5,54.6,91.7,50.9,91.6,47.3  z"/></svg>
