<?xml version="1.0" encoding="utf-8"?>
<svg width="96px" height="96px" viewBox="0 0 96 96" version="1.1" xmlns:xlink="http://www.w3.org/1999/xlink" xmlns="http://www.w3.org/2000/svg">
  <defs>
    <path d="M96 0L96 0L96 96L0 96L0 0L96 0Z" id="path_1" />
    <clipPath id="clip_1">
      <use xlink:href="#path_1" />
    </clipPath>
  </defs>
  <g id="Chevron Droit" clip-path="url(#clip_1)">
    <path d="M96 0L96 0L96 96L0 96L0 0L96 0Z" id="Chevron-Droit" fill="none" stroke="none" />
    <path d="M71.742 47.072L53.65 15.62C53.148 14.662 52.156 14 51 14L30 14C28.896 14 28 14.896 28 16C28 16.366 28.126 16.692 28.298 16.988L46.864 48L72 48C72 47.658 71.892 47.352 71.742 47.072L71.742 47.072Z" id="Shape" fill="#EDBE00" stroke="none" />
    <path d="M71.742 48.928L53.65 80.38C53.148 81.338 52.156 82 51 82L30 82C28.896 82 28 81.104 28 80C28 79.634 28.126 79.308 28.298 79.012L46.864 48L72 48C72 48.342 71.892 48.648 71.742 48.928L71.742 48.928Z" id="Shape" fill="#E3A600" stroke="none" />
  </g>
</svg>